<?xml version="1.0" encoding="UTF-8" standalone="no"?>
<svg
   xmlns:dc="http://purl.org/dc/elements/1.1/"
   xmlns:cc="http://creativecommons.org/ns#"
   xmlns:rdf="http://www.w3.org/1999/02/22-rdf-syntax-ns#"
   xmlns:svg="http://www.w3.org/2000/svg"
   xmlns="http://www.w3.org/2000/svg"
   xmlns:sodipodi="http://sodipodi.sourceforge.net/DTD/sodipodi-0.dtd"
   xmlns:inkscape="http://www.inkscape.org/namespaces/inkscape"
   height="182"
   viewBox="0 0 240 182"
   width="240"
   id="svg4214"
   version="1.1"
   inkscape:version="0.92.4 (5da689c313, 2019-01-14)"
   sodipodi:docname="rijksconnect.svg">
  <metadata
     id="metadata4252">
    <rdf:RDF>
      <cc:Work
         rdf:about="">
        <dc:format>image/svg+xml</dc:format>
        <dc:type
           rdf:resource="http://purl.org/dc/dcmitype/StillImage" />
        <dc:title></dc:title>
      </cc:Work>
    </rdf:RDF>
  </metadata>
  <defs
     id="defs4250">
    <clipPath
       id="clipPath4198"
       clipPathUnits="userSpaceOnUse">
      <path
         inkscape:connector-curvature="0"
         id="path4200"
         d="M 0,500 H 500 V 0 H 0 Z" />
    </clipPath>
  </defs>
  <sodipodi:namedview
     pagecolor="#ffffff"
     bordercolor="#666666"
     borderopacity="1"
     objecttolerance="10"
     gridtolerance="10"
     guidetolerance="10"
     inkscape:pageopacity="0"
     inkscape:pageshadow="2"
     inkscape:window-width="3700"
     inkscape:window-height="2126"
     id="namedview4248"
     showgrid="false"
     inkscape:zoom="1"
     inkscape:cx="456.44855"
     inkscape:cy="91"
     inkscape:window-x="129"
     inkscape:window-y="-11"
     inkscape:window-maximized="1"
     inkscape:current-layer="svg4214" />
  <g
     inkscape:groupmode="layer"
     id="layer1"
     inkscape:label="Layer 1">
    <g
       transform="matrix(0.37588057,0,0,0.37588057,3.8807013,-23.741105)"
       id="g5221"
       style="stroke:none">
      <path
         inkscape:connector-curvature="0"
         d="m 528.427,502.015 c -1.854,0 -3.668,-0.783 -4.941,-2.235 l -59.562,-67.687 c -8.983,0.987 -17.303,1.469 -25.342,1.469 -39.181,0 -76.183,-9.32 -106.999,-26.948 -2.18,-1.248 -3.46,-3.628 -3.302,-6.13 0.158,-2.509 1.729,-4.704 4.046,-5.669 16.107,-6.68 30.562,-14.59 42.974,-23.508 39.089,-27.985 60.611,-65.376 60.611,-105.285 0,-27.043 -8.503,-51.588 -25.275,-72.95 -1.479,-1.883 -1.817,-4.424 -0.886,-6.63 0.932,-2.209 2.989,-3.733 5.373,-3.986 l 1.254,-0.132 c 7.528,-0.796 14.034,-1.488 22.201,-1.488 95.626,0 173.422,56.688 173.422,126.363 0,42.474 -28.696,81.477 -76.993,104.994 v 83.235 c 0,2.738 -1.698,5.191 -4.26,6.159 -0.758,0.289 -1.541,0.428 -2.321,0.428 z m -61.841,-83.443 c 1.88,0 3.685,0.804 4.945,2.235 l 50.308,57.172 v -69.951 c 0,-2.571 1.495,-4.905 3.832,-5.979 45.812,-21.085 73.161,-56.543 73.161,-94.849 0,-62.416 -71.891,-113.194 -160.254,-113.194 -3.815,0 -7.295,0.171 -10.738,0.441 14.1,21.424 21.236,45.453 21.236,71.578 0,44.273 -23.479,85.467 -66.106,115.983 -9.876,7.098 -20.937,13.583 -33.009,19.36 26.29,12.477 56.646,19.024 88.617,19.024 8.523,0 17.425,-0.583 27.212,-1.774 0.267,-0.029 0.533,-0.046 0.796,-0.046 z"
         id="path5223"
         style="fill:#005388;fill-opacity:1;stroke:none;stroke-opacity:1" />
      <path
         inkscape:connector-curvature="0"
         d="m 100.422,498.516 c -0.78,0 -1.567,-0.139 -2.324,-0.425 -2.561,-0.968 -4.26,-3.421 -4.26,-6.159 V 389.606 C 34.991,361.227 0,313.977 0,262.546 0,178.422 94.164,109.985 209.907,109.985 c 115.747,0 209.917,68.437 209.917,152.561 0,84.123 -94.17,152.561 -209.917,152.561 -9.955,0 -20.278,-0.605 -31.458,-1.851 l -73.085,83.027 c -1.275,1.448 -3.089,2.233 -4.942,2.233 z M 209.907,123.153 c -108.48,0 -196.739,62.531 -196.739,139.393 0,47.256 33.647,90.961 90.006,116.908 2.337,1.073 3.832,3.407 3.832,5.979 v 89.058 l 63.838,-72.519 c 1.435,-1.63 3.575,-2.446 5.731,-2.187 11.993,1.448 22.893,2.153 33.331,2.153 108.488,0 196.75,-62.531 196.75,-139.393 0,-76.862 -88.261,-139.392 -196.749,-139.392 z"
         id="path5225"
         style="fill:#005388;fill-opacity:1;stroke:none;stroke-width:1.00031769;stroke-miterlimit:4;stroke-dasharray:none;stroke-opacity:0.98546543" />
    </g>
    <path
       style="fill:#005388;fill-opacity:1;stroke:none;stroke-width:0.37599999;stroke-miterlimit:4;stroke-dasharray:none;stroke-opacity:1"
       d="m 44.225404,136.05 -0.02315,-16.75 -6.965419,-3.91772 C 23.651661,107.74125 14.904377,97.794022 11.143109,85.709044 3.2964836,60.497788 23.135431,35.335373 58.170594,26.062479 c 8.217753,-2.175025 11.708163,-2.535035 24.577955,-2.535035 12.966682,0 16.333443,0.352541 24.836951,2.600733 10.73766,2.83887 23.92743,9.304777 31.36244,15.374537 6.9766,5.695536 12.99463,14.479439 15.44323,22.540911 7.8943,25.990272 -12.57494,51.122695 -49.14262,60.337995 -4.18314,1.05418 -11.991439,1.75646 -21.906346,1.97027 -11.068011,0.23867 -15.738324,0.70054 -16.585273,1.64017 -0.648411,0.71937 -5.798738,6.59544 -11.445172,13.05794 -5.646434,6.4625 -10.445561,11.75 -10.664727,11.75 -0.219166,0 -0.408898,-7.5375 -0.421628,-16.75 z"
       id="path4218"
       inkscape:connector-curvature="0" />
    <path
       style="fill:#005388;fill-opacity:1;stroke:none;stroke-width:0.37599999;stroke-miterlimit:4;stroke-dasharray:none;stroke-opacity:1"
       d="m 39.915216,162.13333 c -0.366667,-0.36666 -0.671542,-9.47916 -0.677499,-20.25 L 39.226884,122.3 33.009259,118.8 C 29.589565,116.875 23.610543,112.15 19.722543,108.3 -11.551752,77.331368 7.2544015,34.24208 57.748549,21.173545 c 8.30854,-2.150357 12.368045,-2.602433 24,-2.672697 7.744302,-0.04678 16.681013,0.476654 20.000001,1.171425 32.49943,6.803177 54.78044,25.203587 58.77793,48.540798 5.82926,34.030969 -33.06358,64.728949 -80.414697,63.471049 L 70.475018,131.42811 56.67319,147.11406 C 43.692395,161.86689 41.559958,163.77808 39.915216,162.13333 Z M 57.155668,140.55 c 6.667916,-7.5625 11.682984,-13.75 11.144594,-13.75 -0.53839,0 -5.832775,5.46871 -11.765302,12.15269 l -10.786411,12.15269 -0.675877,-4.40269 c -0.371732,-2.42148 -0.709232,-9.67009 -0.75,-16.10803 l -0.07412,-11.70534 -7.25,-4.26475 C 26.874222,108.66903 17.990661,99.595545 13.991141,91.125282 9.7049128,82.047822 9.0097523,71.140186 12.179318,62.696304 18.376158,46.187613 34.796831,33.184771 57.748549,26.611942 c 6.946031,-1.989178 10.239685,-2.288594 25,-2.272668 18.160291,0.01959 23.450351,0.921914 35.997641,6.140085 15.74289,6.547155 26.77608,16.032716 32.73154,28.140263 3.03643,6.173101 3.27032,7.367338 3.26381,16.665 -0.006,9.074963 -0.28513,10.578761 -2.96905,16.015378 -1.84468,3.736621 -5.68017,8.71431 -10.1675,13.19537 -5.87789,5.86968 -9.10784,8.11615 -17.53094,12.19296 -13.77245,6.66592 -19.67731,8.08809 -36.544461,8.80161 -14.651617,0.61979 -18.891348,2.31006 -5.794382,2.31006 23.987113,0 45.845083,-7.80152 60.444353,-21.57372 19.69542,-18.579672 19.95184,-42.827439 0.65509,-61.947503 -29.70506,-29.43308 -90.435106,-29.42966 -120.172206,0.0068 -14.6651524,14.516873 -18.0600056,31.358695 -9.76646,48.451284 3.554653,7.325959 14.963234,18.675759 23.602565,23.480959 l 6.75,3.75434 v 17.49727 c 0,9.83234 0.390673,17.35125 0.891817,17.16393 0.4905,-0.18333 6.347386,-6.52083 13.015302,-14.08333 z"
       id="path4220"
       inkscape:connector-curvature="0" />
    <path
       style="fill:#005388;fill-opacity:1;stroke:none;stroke-width:0.37599999;stroke-miterlimit:4;stroke-dasharray:none;stroke-opacity:1"
       d="m 39.915216,162.13333 c -0.366667,-0.36666 -0.68005,-9.47916 -0.696406,-20.25 L 39.189071,122.3 32.974226,118.8 C 29.556061,116.875 23.585547,112.15 19.706417,108.3 -11.631142,77.197769 7.0529348,34.416205 57.748549,21.193643 c 8.344419,-2.176413 12.317813,-2.622227 24,-2.692795 14.330937,-0.08657 21.037601,0.8427 32.500001,4.503162 34.14168,10.902979 53.10603,37.828017 45.03587,63.940655 -6.10123,19.741795 -24.81178,34.891085 -51.86044,41.989605 -5.19142,1.36241 -12.473133,2.19994 -22.500027,2.58792 l -14.824596,0.57362 -13.626053,15.3521 c -12.834741,14.46054 -14.92718,16.31633 -16.558088,14.68542 z M 55.962138,141.67895 C 66.178819,130.19813 68.908321,126.8 67.913463,126.8 c -0.238957,0 -5.323547,5.48855 -11.29909,12.19677 -12.75618,14.32026 -12.053455,14.71231 -12.247509,-6.8328 l -0.118315,-13.13604 -7.25,-4.29271 C 26.935346,108.77682 18.001095,99.612536 13.981238,91.125282 11.004437,84.840265 10.749401,83.508436 10.75931,74.3 c 0.0097,-9.038905 0.285383,-10.528602 2.868149,-15.5 7.894291,-15.195202 22.74697,-26.010047 44.226055,-32.202805 6.830969,-1.969476 10.186236,-2.276263 24.895035,-2.276263 14.64557,0 18.078671,0.311205 24.788501,2.247036 21.98387,6.342495 36.51689,16.958766 43.97659,32.124582 2.99681,6.092626 3.23417,7.313862 3.22483,16.592072 -0.009,8.995315 -0.30554,10.626476 -2.91104,16.015378 -1.8784,3.885045 -5.46128,8.536315 -10.16442,13.19537 -5.88914,5.83394 -9.21715,8.14097 -17.58896,12.19296 -13.53646,6.5517 -19.61996,8.05459 -35.609946,8.79718 -14.470427,0.67202 -19.115585,2.31695 -6.524572,2.31047 36.132718,-0.0186 67.422208,-18.64274 73.889688,-43.980619 C 164.58238,49.522744 121.66784,17.783302 73.264067,22.750468 44.211487,25.731826 21.500191,39.216 12.254796,58.972955 6.8357064,70.553283 7.4589783,83.626497 13.961693,94.775345 17.846449,101.43573 27.73885,110.84467 35.998549,115.73522 l 7.25,4.29271 v 16.88604 c 0,10.1653 0.383513,16.88603 0.963589,16.88603 0.529973,0 5.817473,-5.45447 11.75,-12.12105 z"
       id="path4222"
       inkscape:connector-curvature="0" />
    <path
       style="fill:#005388;fill-opacity:1;stroke:none;stroke-width:0.37599999;stroke-miterlimit:4;stroke-dasharray:none;stroke-opacity:1"
       d="m 39.915216,162.13333 c -0.366667,-0.36666 -0.68005,-9.47916 -0.696406,-20.25 L 39.189071,122.3 32.974226,118.8 c -3.418165,-1.925 -9.403129,-6.66407 -13.299919,-10.53127 -34.936175,-34.670876 -6.59983,-83.183759 52.320232,-89.574195 37.918701,-4.112641 76.017001,13.931094 86.317221,40.880699 9.53803,24.955418 -6.12359,52.383696 -37.04226,64.872296 -11.59544,4.6836 -20.77606,6.47221 -36.305785,7.07325 L 70.178881,132.093 56.570747,147.4465 C 43.81302,161.84052 41.5861,163.80422 39.915216,162.13333 Z m 16.774445,-21.35932 c 5.807388,-6.58942 10.558888,-12.30424 10.558888,-12.6996 0,-0.86524 -1.177871,0.36361 -12.593193,13.13824 -10.519559,11.7722 -10.156378,12.07342 -10.307127,-8.54868 l -0.09968,-13.63604 -7.25,-4.29271 C 26.935346,108.77682 18.001095,99.612536 13.981238,91.125282 11.005742,84.843021 10.749106,83.504398 10.755555,74.3 c 0.0064,-9.095275 0.27779,-10.542835 3,-16 5.489873,-11.005448 18.797865,-22.220365 33.3352,-28.092255 12.571224,-5.077743 17.578622,-5.894179 36.157794,-5.895383 15.4285,-0.001 18.387781,0.271353 25.000001,2.300839 21.06637,6.465896 36.67706,17.944781 43.2344,31.791199 3.01005,6.355987 3.2656,7.678146 3.2656,16.8956 0,9.006045 -0.28963,10.596373 -2.9139,16 -1.87616,3.863203 -5.49963,8.562509 -10.1745,13.19537 -5.88861,5.83571 -9.21175,8.13974 -17.5861,12.19296 -13.31137,6.44276 -19.63344,8.06003 -34.325501,8.78093 -6.6,0.32385 -12.675,1.00949 -13.5,1.52365 -3.161703,1.97045 21.330172,-0.0681 31.288411,-2.60429 32.25091,-8.21365 53.32543,-32.38396 48.74105,-55.900987 C 152.18517,47.49207 131.26715,30.248203 102.68617,24.308957 92.176119,22.124924 73.220681,22.124602 62.748549,24.30828 34.019696,30.298898 13.647147,47.138599 9.1883083,68.580524 c -1.483387,7.133398 -0.049858,16.066316 3.8686327,24.10706 3.47761,7.136059 14.153993,17.812576 23.166541,23.166836 l 7.025067,4.17351 0.01365,14.63604 c 0.0138,14.79688 0.533579,19.53389 2.041147,18.60216 0.455082,-0.28126 5.578922,-5.90271 11.38631,-12.49212 z"
       id="path4224"
       inkscape:connector-curvature="0" />
    <path
       style="fill:#005388;fill-opacity:1;stroke:none;stroke-width:0.37599999;stroke-miterlimit:4;stroke-dasharray:none;stroke-opacity:1"
       d="m 39.915216,162.13333 c -0.366667,-0.36666 -0.68005,-9.47916 -0.696406,-20.25 L 39.189071,122.3 33.248129,118.89822 C 14.541674,108.1869 3.1907686,89.821771 4.5252887,72.426276 5.9158742,54.299968 17.203339,39.283661 37.248549,28.892807 64.457472,14.788491 98.443475,14.357656 125.74855,27.770906 c 12.13277,5.960059 20.10516,12.12872 25.96798,20.092804 20.32513,27.609734 6.56713,61.52479 -31.19158,76.89081 -10.78392,4.38855 -20.5202,6.22421 -36.049214,6.79665 l -14.272813,0.52614 -13.560822,15.36135 C 43.98849,161.77234 41.627959,163.84608 39.915216,162.13333 Z M 54.918821,142.55 c 10.133042,-11.54536 14.826936,-17.35535 10.704694,-13.25 -1.104527,1.1 -6.008203,6.42785 -10.897058,11.83967 -7.40638,8.19865 -9.009615,9.53286 -9.613082,8 -0.39834,-1.01182 -0.755884,-8.19286 -0.794541,-15.95787 l -0.07029,-14.11819 -6.611663,-3.86665 C 26.938843,108.94051 18.885712,100.86905 14.518364,92.025805 10.915321,84.730168 10.748549,83.948046 10.748549,74.34624 c 0,-9.071507 0.274982,-10.579847 2.834152,-15.545945 7.421739,-14.40197 20.690236,-24.558541 40.665848,-31.128284 4.675,-1.537552 7.78682,-2.812754 6.915156,-2.83378 C 58.410846,24.771824 47.03425,28.815489 39.248549,32.62769 33.75034,35.31984 29.588635,38.435244 23.656122,44.3 14.759659,53.094853 10.942005,59.634052 9.2068101,69.05 6.1991162,85.371103 16.568464,103.3404 35.998549,115.47805 l 7.25,4.52896 0.01101,13.1465 c 0.0096,11.48801 0.683006,20.64649 1.518063,20.64649 0.147064,0 4.710604,-5.0625 10.141199,-11.25 z M 94.748549,126.69604 C 128.09641,122.62638 153.08653,103.28747 156.64073,78.8 c 1.49029,-10.26772 -3.22218,-22.7998 -12.10115,-32.181106 -8.86585,-9.36744 -19.26473,-15.685771 -32.79103,-19.923737 -10.03792,-3.14501 -9.63165,-2.095043 0.54726,1.414343 19.02664,6.55982 32.23555,16.606775 39.07928,29.724451 3.20655,6.146122 3.37346,6.985568 3.37346,16.966049 0,9.558318 -0.26133,11.038104 -2.9139,16.5 -4.69235,9.66203 -15.09576,19.19566 -27.71455,25.39747 -12.86415,6.3224 -19.35965,8.03433 -33.371551,8.79527 -6.05,0.32855 -11.9,0.95357 -13,1.38893 -3.05295,1.20829 6.425914,1.10479 17,-0.18563 z M 98.644188,23.60763 c -5.041149,-0.895962 -26.750129,-0.895962 -31.791278,0 -2.142601,0.380803 5.010437,0.69237 15.895639,0.69237 10.885202,0 18.038241,-0.311567 15.895639,-0.69237 z"
       id="path4226"
       inkscape:connector-curvature="0" />
    <path
       style="fill:#005388;fill-opacity:1;stroke:none;stroke-width:0.37599999;stroke-miterlimit:4;stroke-dasharray:none;stroke-opacity:1"
       d="m 39.915216,162.13333 c -0.366667,-0.36666 -0.68005,-9.47916 -0.696406,-20.25 L 39.189071,122.3 32.96881,118.80645 C 19.968491,111.50495 8.2203652,96.730434 5.243414,83.93882 1.5100802,67.897117 9.0295189,49.160022 23.968157,37.280112 c 7.783882,-6.19011 23.783596,-13.828511 34.780392,-16.604458 12.717029,-3.210189 34.980827,-3.226897 48.000001,-0.03602 11.82472,2.898125 29.27506,11.526159 36.6838,18.137704 30.03749,26.805376 20.92931,65.853602 -19.74402,84.645832 -11.38331,5.25942 -21.8532,7.45048 -38.646865,8.08774 L 70.33438,132.069 56.709231,147.4345 C 43.994464,161.77334 41.627172,163.84529 39.915216,162.13333 Z M 58.483463,138.3 c 3.989192,-4.64745 2.815314,-3.64122 -3.492871,2.99404 -7.913627,8.32395 -9.585675,9.66082 -10.005719,8 -0.306254,-1.2109 -0.533772,-0.61945 -0.57931,1.50596 l -0.07499,3.5 4.072181,-4.5 c 2.239699,-2.475 6.776017,-7.65 10.080707,-11.5 z M 44.248549,132.4318 V 119.06361 L 37.550761,115.1818 C 27.62833,109.43111 19.188395,101.09795 14.631383,92.552393 10.924578,85.601189 10.763646,84.905469 10.756257,75.8 c -0.0042,-5.225 0.335974,-10.85 0.75603,-12.5 0.536014,-2.105488 0.472986,-2.525252 -0.211383,-1.407796 C 9.5135957,64.810569 8.5279062,74.646975 9.4312378,80.55 c 0.483953,3.1625 2.0674192,8.225 3.5188132,11.25 3.316254,6.911748 15.64079,19.41719 23.798498,24.14783 l 6,3.47938 0.279025,13.1864 c 0.153464,7.25251 0.490964,13.18639 0.75,13.18639 0.259036,0 0.470975,-6.01569 0.470975,-13.3682 z m 55.5,-6.591 c 2.415321,-0.48379 -0.555951,-0.59226 -7.5,-0.27378 -6.325,0.29008 -12.4,0.91967 -13.5,1.39908 -2.337216,1.01863 14.910796,0.0944 21,-1.1253 z m 7.229171,-1.64497 c -0.3323,-0.33229 -1.1948,-0.36781 -1.91667,-0.0789 -0.79773,0.31922 -0.56078,0.55618 0.60417,0.60416 1.05416,0.0434 1.64479,-0.19292 1.3125,-0.52522 z m 11.77083,-3.68297 c 20.54246,-8.35435 34.81422,-23.59468 37.4729,-40.016007 3.49867,-21.609622 -14.16188,-43.397593 -43.17527,-53.265684 -3.93136,-1.337143 -7.63162,-2.404685 -8.22278,-2.372316 -0.59117,0.03237 2.97515,1.50065 7.92515,3.262846 18.70439,6.658746 31.89116,16.802254 38.62654,29.712252 3.20655,6.146122 3.37346,6.985568 3.37346,16.966049 0,9.558318 -0.26133,11.038104 -2.9139,16.5 -5.85874,12.06374 -21.47571,24.31348 -38.89306,30.50719 -2.85617,1.01567 -4.51804,1.87199 -3.69304,1.90292 0.825,0.0309 5.1,-1.40783 9.5,-3.19725 z M 16.469141,53.55 c 1.053578,-1.5125 1.676177,-2.75 1.383553,-2.75 -0.802433,0 -5.608632,7.314092 -5.573736,8.482135 0.01672,0.559826 0.535348,0.117865 1.152497,-0.982135 0.617149,-1.1 1.984108,-3.2375 3.037686,-4.75 z M 39.051794,33.99023 c 4.233215,-2.18748 10.278796,-4.780619 13.434624,-5.762531 3.155827,-0.981912 5.547479,-1.975684 5.314782,-2.208381 -0.798089,-0.798089 -11.055447,3.030619 -18.816246,7.023438 -4.827598,2.483729 -10.311134,6.444783 -14.5,10.474131 l -6.736405,6.479874 6.803245,-6.014647 c 3.741784,-3.308057 10.266784,-7.804404 14.5,-9.991884 z M 89.998549,23.05845 c -3.7125,-0.192406 -9.7875,-0.192406 -13.5,0 -3.7125,0.192406 -0.675,0.349829 6.75,0.349829 7.425,0 10.4625,-0.157423 6.75,-0.349829 z"
       id="path4228"
       inkscape:connector-curvature="0" />
    <path
       style="fill:#005388;fill-opacity:1;stroke:none;stroke-width:0.37599999;stroke-miterlimit:4;stroke-dasharray:none;stroke-opacity:1"
       d="m 39.915216,162.13333 c -0.366667,-0.36666 -0.667736,-9.47916 -0.669043,-20.25 L 39.243797,122.3 33.496173,119.31172 C 26.273509,115.55653 13.617456,103.05177 9.8516192,95.949811 -0.49619889,76.434943 4.1290445,54.78311 22.064748,38.777335 29.485953,32.15467 46.929054,23.53399 58.748549,20.64757 c 12.10176,-2.955352 34.216084,-3.175642 46.000001,-0.458224 17.23565,3.974608 31.46385,11.35674 41.5,21.531777 26.7591,27.129411 16.69868,63.563317 -22.56022,81.702047 -11.37398,5.25511 -21.85568,7.45054 -38.607383,8.08647 l -14.667602,0.55682 -13.63908,15.36677 c -12.704363,14.31365 -15.130261,16.42889 -16.859049,14.7001 z M 57.442691,139.3 c 1.737923,-2.2 -0.136313,-0.48108 -4.164969,3.81983 -5.350077,5.71162 -7.550445,7.464 -8.161689,6.5 -0.555274,-0.87574 -0.831301,-0.3104 -0.820343,1.68017 l 0.01652,3 4.985311,-5.5 c 2.741922,-3.025 6.40725,-7.3 8.145174,-9.5 z m -13.216234,-8.25 -0.02209,-11.75 -7.727908,-4.83048 c -4.250349,-2.65677 -6.926684,-4.00677 -5.947409,-3 0.979274,1.00676 4.129274,3.21128 7,4.89892 l 5.219499,3.06845 0.281735,11.68155 c 0.154955,6.42486 0.492455,11.68156 0.75,11.68156 0.257546,0 0.458324,-5.2875 0.446173,-11.75 z m 54.472566,-5.23358 c 2.755957,-1.00163 -14.308217,-0.0196 -17.950474,1.03303 -1.9003,0.5492 0.482384,0.6487 6.5,0.27144 5.225,-0.32758 10.377713,-0.91459 11.450474,-1.30447 z m 8.278697,-1.62059 c -0.3323,-0.33229 -1.1948,-0.36781 -1.91667,-0.0789 -0.79773,0.31922 -0.56078,0.55618 0.60417,0.60416 1.05416,0.0434 1.64479,-0.19292 1.3125,-0.52522 z m 12.71924,-4.11257 c 11.262,-4.68708 23.07791,-13.618 28.82001,-21.78326 1.16033,-1.65 -0.84657,0.15 -4.45979,4 -7.11673,7.58311 -16.15731,13.52564 -27.30863,17.95044 -3.85,1.52767 -7.225,3.00717 -7.5,3.28779 -0.79868,0.81501 4.00629,-0.77385 10.44841,-3.45497 z M 28.248549,109.51241 c 0,-0.15818 -2.3625,-2.52068 -5.25,-5.25 l -5.25,-4.96241 4.962408,5.25 c 4.611158,4.87839 5.537592,5.7086 5.537592,4.96241 z M 15.816737,94.908016 C 11.466944,88.017499 9.9477158,81.630909 10.491807,72.522871 10.761975,68.000292 11.301742,63.4 11.69129,62.3 c 0.70827,-2 0.70827,-2 -0.558415,0 C 9.0090568,65.65335 8.7459593,79.95336 10.696412,86.022871 12.271469,90.92421 16.634867,98.8 17.775282,98.8 c 0.274096,0 -0.60725,-1.751393 -1.958545,-3.891984 z M 153.24855,90.442204 c 0,-1.270543 -0.4619,-0.703236 -1.91971,2.357796 -1.12265,2.357268 -1.10183,2.389176 0.36454,0.55887 0.85535,-1.067621 1.55517,-2.380121 1.55517,-2.916666 z m 1.68311,-5.829704 c -0.31922,-0.797733 -0.55618,-0.560776 -0.60416,0.604167 -0.0434,1.054166 0.19292,1.644791 0.52522,1.3125 0.33229,-0.332292 0.36781,-1.194792 0.0789,-1.916667 z m 0.3273,-18.870998 -1.06683,-2.441502 0.51456,2.5 c 0.283,1.375 0.61126,5.875 0.72945,10 l 0.2149,7.5 0.33737,-7.558498 c 0.18556,-4.157174 -0.1427,-8.657174 -0.72945,-10 z m -1.88834,-5.616499 c -1.17884,-2.027217 -1.46351,-1.378356 -0.49853,1.136338 0.34294,0.893703 0.83419,1.414259 1.09166,1.15679 0.25747,-0.257469 -0.009,-1.289377 -0.59313,-2.293128 z m -2.58928,-5.261591 c -0.83521,-1.615123 -1.97254,-3.21716 -2.5274,-3.560082 -0.55486,-0.342923 -0.0636,0.978542 1.09166,2.936587 2.53275,4.292693 3.56496,4.740946 1.43574,0.623495 z M 16.737266,53.176876 C 17.682571,51.734158 17.961745,50.859221 17.357653,51.23257 16.203258,51.946025 13.874976,55.8 14.598355,55.8 c 0.231096,0 1.193606,-1.180406 2.138911,-2.623124 z M 143.24855,45.3 c -2.42903,-2.475 -4.64142,-4.5 -4.91642,-4.5 -0.275,0 1.48739,2.025 3.91642,4.5 2.42903,2.475 4.64142,4.5 4.91642,4.5 0.275,0 -1.48739,-2.025 -3.91642,-4.5 z m -119.000001,-1 c 1.865783,-1.925 3.167334,-3.5 2.892334,-3.5 -0.275,0 -2.026551,1.575 -3.892334,3.5 -1.865783,1.925 -3.167334,3.5 -2.892334,3.5 0.275,0 2.026551,-1.575 3.892334,-3.5 z M 39.419637,33.742735 c 4.030902,-2.139564 6.944717,-3.901956 6.475145,-3.916426 -1.786073,-0.05504 -14.565281,7.233298 -16.314454,9.304585 L 27.748549,41.3 29.919637,39.466427 c 1.194099,-1.008466 5.469099,-3.584127 9.5,-5.723692 z m 97.828913,6.67971 c 0,-0.207656 -0.7875,-0.995156 -1.75,-1.75 -1.58606,-1.243871 -1.62143,-1.208501 -0.37756,0.377555 1.30637,1.665748 2.12756,2.195479 2.12756,1.372445 z m -7,-5.171735 c 0,-0.752963 -13.90649,-7.159841 -17,-7.832093 -1.95217,-0.424229 -1.84383,-0.277619 0.49445,0.669053 1.64694,0.666781 5.92194,2.641219 9.5,4.387639 7.57762,3.698575 7.00555,3.471939 7.00555,2.775401 z M 50.248549,28.8 c 0.825,-0.533156 1.05,-0.969374 0.5,-0.969374 -0.55,0 -1.675,0.436218 -2.5,0.969374 -0.825,0.533156 -1.05,0.969374 -0.5,0.969374 0.55,0 1.675,-0.436218 2.5,-0.969374 z m 37.25,-5.732205 c -2.3375,-0.210535 -6.1625,-0.210535 -8.5,0 -2.3375,0.210535 -0.425,0.382791 4.25,0.382791 4.675,0 6.5875,-0.172256 4.25,-0.382791 z"
       id="path4230"
       inkscape:connector-curvature="0" />
    <path
       style="fill:#005388;fill-opacity:1;stroke:none;stroke-width:0.37599999;stroke-miterlimit:4;stroke-dasharray:none;stroke-opacity:1"
       d="m 39.724296,161.55 c -0.253816,-0.6875 -0.577192,-9.77104 -0.718615,-20.18565 l -0.257132,-18.93565 -6,-3.48346 c -3.3,-1.91591 -9.258792,-6.72785 -13.24176,-10.69321 -32.00376,-31.862263 -11.3758631,-75.927849 41.24176,-88.101191 12.532844,-2.899535 34.910891,-2.452265 47.768161,0.954742 23.28095,6.169141 40.05425,18.451005 48.47923,35.497811 3.62,7.324572 3.75261,7.965754 3.75261,18.144745 0,10.134464 -0.14866,10.863221 -3.75824,18.423007 -11.29698,23.660036 -40.62642,38.611406 -75.768624,38.624836 L 70.694823,131.8 56.924587,147.3 c -12.994579,14.62691 -16.108663,17.20685 -17.200291,14.25 z m 11.014753,-14.5 5.845659,-6.75 -5.475631,5.27578 c -3.011597,2.90168 -5.787233,4.96418 -6.168079,4.58334 -0.380847,-0.38085 -0.692449,0.28255 -0.692449,1.47421 0,1.19167 0.145089,2.16667 0.32242,2.16667 0.177331,0 2.952967,-3.0375 6.16808,-6.75 z m -6.750422,-22.96349 c -0.19905,-3.18258 -0.363755,-0.83651 -0.366011,5.21349 -0.0023,6.05 0.160603,8.65393 0.361909,5.78651 0.201306,-2.86742 0.203152,-7.81742 0.0041,-11 z m 52.176589,2.07698 c 0.8593,-0.74964 -12.499821,-0.18847 -14.416667,0.60559 -1.156818,0.47922 1.372728,0.60283 6,0.29321 4.4,-0.29442 8.1875,-0.69888 8.416667,-0.8988 z M 115.24855,121.8 c 0.825,-0.53316 1.05,-0.96937 0.5,-0.96937 -0.55,0 -1.675,0.43621 -2.5,0.96937 -0.825,0.53316 -1.05,0.96937 -0.5,0.96937 0.55,0 1.675,-0.43621 2.5,-0.96937 z m 6,-2.5 c 1.375,-0.78602 2.05,-1.42913 1.5,-1.42913 -0.55,0 -2.125,0.64311 -3.5,1.42913 -1.375,0.78602 -2.05,1.42913 -1.5,1.42913 0.55,0 2.125,-0.64311 3.5,-1.42913 z m -79.550001,-1.33996 c -1.703445,-1.50614 -8.45,-5.33713 -8.45,-4.79828 0,0.28869 1.9125,1.67113 4.25,3.0721 4.317746,2.58782 5.918702,3.24581 4.2,1.72618 z m 93.690981,-6.82991 c 0.60857,-0.73328 -1.4825,0.22577 -4.64682,2.13123 -7.48366,4.50642 -8.42823,5.61323 -1.72692,2.02353 2.89699,-1.55184 5.76517,-3.42148 6.37374,-4.15476 z M 143.24855,104.3 c 2.98742,-3.025 5.20668,-5.5 4.93168,-5.5 -0.275,0 -2.94426,2.475 -5.93168,5.5 -2.98742,3.025 -5.20668,5.5 -4.93168,5.5 0.275,0 2.94426,-2.475 5.93168,-5.5 z m -116.000001,4.18709 c 0,-0.1721 -1.4625,-1.6346 -3.25,-3.25 l -3.25,-2.93709 2.937091,3.25 c 2.737781,3.02946 3.562909,3.70965 3.562909,2.93709 z m -11,-12.68709 c -0.588702,-1.1 -1.295368,-2 -1.570368,-2 -0.275,0 -0.01833,0.9 0.570368,2 0.588702,1.1 1.295368,2 1.570368,2 0.275,0 0.01833,-0.9 -0.570368,-2 z M 153.05542,90.273539 c -0.30789,-0.307888 -0.86705,0.247112 -1.24258,1.233333 -0.54268,1.425198 -0.42782,1.540062 0.5598,0.559795 0.68342,-0.678334 0.99067,-1.485241 0.68278,-1.793128 z M 12.370622,88.125003 c -1.178845,-2.027217 -1.463513,-1.378356 -0.498535,1.136338 0.342947,0.893703 0.834196,1.414259 1.091664,1.15679 0.257469,-0.257469 -0.0094,-1.289377 -0.593129,-2.293128 z M 10.931663,83.6125 c -0.319226,-0.797733 -0.556183,-0.560776 -0.604167,0.604167 -0.04342,1.054166 0.192928,1.644791 0.52522,1.3125 0.332291,-0.332292 0.367817,-1.194792 0.07895,-1.916667 z M 9.9770172,71.05 C 9.761273,68.9875 9.584755,70.675 9.584755,74.8 c 0,4.125 0.176518,5.8125 0.3922622,3.75 0.2157438,-2.0625 0.2157438,-5.4375 0,-7.5 z m 146.0000028,0 c -0.21575,-2.0625 -0.39226,-0.375 -0.39226,3.75 0,4.125 0.17651,5.8125 0.39226,3.75 0.21574,-2.0625 0.21574,-5.4375 0,-7.5 z M 10.931663,64.6125 c -0.319226,-0.797733 -0.556183,-0.560776 -0.604167,0.604167 -0.04342,1.054166 0.192928,1.644791 0.52522,1.3125 0.332291,-0.332292 0.367817,-1.194792 0.07895,-1.916667 z m 143.999997,0 c -0.31922,-0.797733 -0.55618,-0.560776 -0.60416,0.604167 -0.0434,1.054166 0.19292,1.644791 0.52522,1.3125 0.33229,-0.332292 0.36781,-1.194792 0.0789,-1.916667 z m -1.56104,-4.487497 c -1.17884,-2.027217 -1.46351,-1.378356 -0.49853,1.136338 0.34294,0.893703 0.83419,1.414259 1.09166,1.15679 0.25747,-0.257469 -0.009,-1.289377 -0.59313,-2.293128 z M 16.248549,53.8 c 0.588702,-1.1 0.845368,-2 0.570368,-2 -0.275,0 -0.981666,0.9 -1.570368,2 -0.588702,1.1 -0.845368,2 -0.570368,2 0.275,0 0.981666,-0.9 1.570368,-2 z m 134.000001,0 c -0.5887,-1.1 -1.29537,-2 -1.57037,-2 -0.275,0 -0.0183,0.9 0.57037,2 0.5887,1.1 1.29537,2 1.57037,2 0.275,0 0.0183,-0.9 -0.57037,-2 z m -4,-5.303833 c 0,-0.167108 -1.6875,-1.854608 -3.75,-3.75 l -3.75,-3.446167 3.44617,3.75 c 3.20761,3.490419 4.05383,4.209787 4.05383,3.446167 z M 24.748549,43.8 c 0.995486,-1.1 1.584975,-2 1.309975,-2 -0.275,0 -1.314489,0.9 -2.309975,2 -0.995486,1.1 -1.584975,2 -1.309975,2 0.275,0 1.314489,-0.9 2.309975,-2 z M 45.820037,30.038155 c -0.449246,-0.449247 -10.571488,4.594717 -10.571488,5.267826 0,0.259758 2.462425,-0.735398 5.472055,-2.211458 3.009629,-1.476061 5.304375,-2.851427 5.099433,-3.056368 z m 84.428513,5.278691 c 0,-0.606425 -9.65401,-5.533682 -10.71676,-5.469668 -0.43078,0.02595 1.69176,1.354717 4.71676,2.952822 6.1387,3.243069 6,3.184888 6,2.516846 z M 50.248549,28.8 c 0.825,-0.533156 1.05,-0.969374 0.5,-0.969374 -0.55,0 -1.675,0.436218 -2.5,0.969374 -0.825,0.533156 -1.05,0.969374 -0.5,0.969374 0.55,0 1.675,-0.436218 2.5,-0.969374 z m 67.000001,0 c -0.825,-0.533156 -1.95,-0.969374 -2.5,-0.969374 -0.55,0 -0.325,0.436218 0.5,0.969374 0.825,0.533156 1.95,0.969374 2.5,0.969374 0.55,0 0.325,-0.436218 -0.5,-0.969374 z M 85.498549,23.094267 c -1.2375,-0.238353 -3.2625,-0.238353 -4.5,0 -1.2375,0.238353 -0.225,0.433369 2.25,0.433369 2.475,0 3.4875,-0.195016 2.25,-0.433369 z"
       id="path4232"
       inkscape:connector-curvature="0" />
    <path
       style="fill:#005388;fill-opacity:1;stroke:none;stroke-width:0.37599999;stroke-miterlimit:4;stroke-dasharray:none;stroke-opacity:1"
       d="m 39.724296,161.55 c -0.253816,-0.6875 -0.577192,-9.77104 -0.718615,-20.18565 l -0.257132,-18.93565 -6,-3.48346 C 23.243267,113.42668 12.955724,102.48886 8.5067892,93.171144 4.927592,85.674983 4.7498705,84.823598 4.776292,75.3 4.8095577,63.309448 6.9368208,56.967718 14.09817,47.509911 35.344788,19.450057 84.327805,9.595393 122.27971,25.745375 c 16.24088,6.911117 28.07228,17.415758 34.68662,30.796922 3.65398,7.392203 3.78222,8.009435 3.78222,18.204668 0,10.15158 -0.14419,10.855033 -3.79028,18.49165 -5.62613,11.783735 -15.92393,21.614745 -29.81414,28.462695 -14.37903,7.08895 -23.01104,9.13066 -41.500853,9.81613 l -15.105273,0.55999 -13.672657,15.36128 C 43.975425,161.92059 40.820112,164.51819 39.724296,161.55 Z m 10.942968,-14.51262 4.918715,-5.73738 -4.977742,4.77431 c -2.737758,2.62587 -5.28868,4.46337 -5.668715,4.08333 -0.380035,-0.38004 -0.690973,0.059 -0.690973,0.97569 0,2.73412 1.243523,1.9406 6.418715,-4.09595 z M 43.94154,128.06903 C 43.687996,127.09606 43.463877,127.65 43.443498,129.3 c -0.02038,1.65 0.187065,2.44606 0.460988,1.76903 0.273923,-0.67703 0.290597,-2.02703 0.03705,-3 z m 49.074918,-1.98356 c -1.50265,-0.22817 -4.20265,-0.23276 -6,-0.0102 -1.79735,0.22256 -0.567909,0.40925 2.732091,0.41486 3.3,0.006 4.770559,-0.17648 3.267909,-0.40466 z M 115.24855,121.8 c 0.825,-0.53316 1.05,-0.96937 0.5,-0.96937 -0.55,0 -1.675,0.43621 -2.5,0.96937 -0.825,0.53316 -1.05,0.96937 -0.5,0.96937 0.55,0 1.675,-0.43621 2.5,-0.96937 z m 5,-2 c 0.825,-0.53316 1.05,-0.96937 0.5,-0.96937 -0.55,0 -1.675,0.43621 -2.5,0.96937 -0.825,0.53316 -1.05,0.96937 -0.5,0.96937 0.55,0 1.675,-0.43621 2.5,-0.96937 z m -80.000001,-2.46482 c 0,-0.25565 -1.0125,-0.95547 -2.25,-1.55516 -2.160626,-1.04704 -2.172895,-1.02858 -0.30887,0.46481 2.040262,1.63459 2.55887,1.85557 2.55887,1.09035 z m 90.000001,-3.10555 c 0,-0.275 -0.9,-0.0183 -2,0.57037 -1.1,0.5887 -2,1.29537 -2,1.57037 0,0.275 0.9,0.0183 2,-0.57037 1.1,-0.5887 2,-1.29537 2,-1.57037 z m 5,-3 c 0,-0.275 -0.9,-0.0183 -2,0.57037 -1.1,0.5887 -2,1.29537 -2,1.57037 0,0.275 0.9,0.0183 2,-0.57037 1.1,-0.5887 2,-1.29537 2,-1.57037 z m 12,-11.13784 c 0,-0.750884 -0.89783,0.043 -5.04179,4.45821 l -4.45821,4.75 4.75,-4.45821 c 2.6125,-2.45201 4.75,-4.58951 4.75,-4.75 z M 16.248549,95.8 c -0.588702,-1.1 -1.295368,-2 -1.570368,-2 -0.275,0 -0.01833,0.9 0.570368,2 0.588702,1.1 1.295368,2 1.570368,2 0.275,0 0.01833,-0.9 -0.570368,-2 z M 9.9542818,72.55 C 9.7159289,71.3125 9.5209129,72.325 9.5209129,74.8 c 0,2.475 0.195016,3.4875 0.4333689,2.25 0.2383532,-1.2375 0.2383532,-3.2625 0,-4.5 z M 155.94154,72.069032 C 155.688,71.096064 155.46388,71.65 155.4435,73.3 c -0.0204,1.65 0.18706,2.446064 0.46099,1.769032 0.27392,-0.677033 0.29059,-2.027033 0.0371,-3 z m -9.69299,-23.614044 c 0,-0.189757 -1.0125,-1.202257 -2.25,-2.25 l -2.25,-1.904988 1.90499,2.25 c 1.79022,2.114445 2.59501,2.705241 2.59501,1.904988 z M 43.823515,31.041632 c -0.452387,-0.452387 -8.574966,3.588264 -8.574966,4.265695 0,0.256674 2.015127,-0.512345 4.47806,-1.70893 2.462933,-1.196586 4.306541,-2.34713 4.096906,-2.556765 z m 86.425035,4.278692 c 0,-0.606371 -7.64821,-4.535892 -8.71016,-4.475137 -0.43441,0.02485 1.23516,1.129519 3.71016,2.454813 5.04149,2.699576 5,2.682813 5,2.020324 z M 50.248549,28.8 c 0.825,-0.533156 1.05,-0.969374 0.5,-0.969374 -0.55,0 -1.675,0.436218 -2.5,0.969374 -0.825,0.533156 -1.05,0.969374 -0.5,0.969374 0.55,0 1.675,-0.436218 2.5,-0.969374 z m 67.000001,0 c -0.825,-0.533156 -1.95,-0.969374 -2.5,-0.969374 -0.55,0 -0.325,0.436218 0.5,0.969374 0.825,0.533156 1.95,0.969374 2.5,0.969374 0.55,0 0.325,-0.436218 -0.5,-0.969374 z"
       id="path4234"
       inkscape:connector-curvature="0" />
    <path
       style="fill:#005388;fill-opacity:1;stroke:none;stroke-width:0.37599999;stroke-miterlimit:4;stroke-dasharray:none;stroke-opacity:1"
       d="m 39.949785,162.1679 c -0.38568,-0.38568 -0.701236,-9.32631 -0.701236,-19.86808 v -19.16684 l -7.831678,-5.10103 C 21.120715,111.32574 12.877181,102.32012 8.3417703,92.823661 4.9197615,85.658493 4.7485488,84.79716 4.7485488,74.746965 4.7485488,64.551732 4.8767856,63.9345 8.5307702,56.542297 19.327988,34.698959 45.203621,20.023404 76.155514,18.188429 111.97277,16.065011 144.69248,31.498143 156.8457,56.248137 c 3.78839,7.715036 3.90285,8.257601 3.90285,18.5 0,10.150224 -0.14427,10.854033 -3.79028,18.490478 -5.62613,11.783735 -15.92393,21.614745 -29.81414,28.462695 -14.16377,6.98282 -22.97236,9.08521 -41.557355,9.91871 L 70.425001,132.3 57.028309,147.29756 c -12.629487,14.13868 -15.39887,16.55 -17.078524,14.87034 z m 9.855404,-14.3679 3.934523,-4.5 -4.651387,4 c -2.558264,2.2 -4.693775,4.375 -4.745582,4.83333 -0.172774,1.52854 1.491647,0.20816 5.462446,-4.33333 z m 42.205019,-21.68708 c -0.956087,-0.25029 -2.756087,-0.25937 -4,-0.0202 -1.243912,0.23919 -0.461659,0.44398 1.738341,0.45508 2.2,0.0111 3.217747,-0.18461 2.261659,-0.4349 z m 28.764802,-7.11979 c -0.30789,-0.30789 -1.11479,-6.4e-4 -1.79313,0.68278 -0.98026,0.98762 -0.8654,1.10248 0.5598,0.5598 0.98622,-0.37553 1.54122,-0.93469 1.23333,-1.24258 z m 23.03645,-15.44313 2.93709,-3.25 -3.25,2.93709 c -3.02946,2.73778 -3.70965,3.56291 -2.93709,3.56291 0.1721,0 1.6346,-1.4625 3.25,-3.25 z M 41.248549,32.229632 c 0,-0.275 -0.9,-0.01833 -2,0.570368 -1.1,0.588702 -2,1.295368 -2,1.570368 0,0.275 0.9,0.01833 2,-0.570368 1.1,-0.588702 2,-1.295368 2,-1.570368 z m 87.000001,2.096048 c 0,-0.260876 -1.35,-1.172432 -3,-2.02568 -3.76088,-1.944828 -3.98844,-1.100113 -0.25,0.928025 3.14255,1.704863 3.25,1.741152 3.25,1.097655 z"
       id="path4236"
       inkscape:connector-curvature="0" />
    <path
       style="fill:#005388;fill-opacity:1;stroke:none;stroke-width:0.37599999;stroke-miterlimit:4;stroke-dasharray:none;stroke-opacity:1"
       d="m 39.949785,162.1679 c -0.38568,-0.38568 -0.701236,-9.32631 -0.701236,-19.86808 v -19.16684 l -7.831678,-5.10103 C 21.120715,111.32574 12.877181,102.32012 8.3417703,92.823661 4.9197615,85.658493 4.7485488,84.79716 4.7485488,74.746965 c 0,-10.243963 0.1143049,-10.785782 3.9028495,-18.5 C 19.897759,33.347174 49.861147,17.8 82.748549,17.8 c 32.888471,0 62.852191,15.547819 74.097151,38.448137 3.7937,7.725853 3.90285,8.245348 3.90285,18.575391 0,10.490224 -0.0548,10.737822 -4.24905,19.202196 -5.86271,11.831436 -15.4318,20.813856 -29.62707,27.810646 -13.874,6.83844 -22.78756,8.95351 -41.231351,9.78365 L 70.533609,132.3 57.097733,147.29465 C 44.440909,161.41987 41.635244,163.85336 39.949785,162.1679 Z M 48.748549,148.8 c 2.148243,-2.2 3.680896,-4 3.405896,-4 -0.275,0 -2.257653,1.8 -4.405896,4 -2.148243,2.2 -3.680896,4 -3.405896,4 0.275,0 2.257653,-1.8 4.405896,-4 z m 42.75,-22.66228 c -0.6875,-0.27741 -1.8125,-0.27741 -2.5,0 -0.6875,0.27741 -0.125,0.50439 1.25,0.50439 1.375,0 1.9375,-0.22698 1.25,-0.50439 z M 126.80742,33.268197 c -1.06762,-0.807509 -2.41762,-1.452251 -3,-1.432762 -0.58238,0.01949 0.0661,0.678544 1.44113,1.464565 3.23925,1.851725 4.02785,1.835637 1.55887,-0.0318 z"
       id="path4238"
       inkscape:connector-curvature="0" />
    <path
       style="fill:#005388;fill-opacity:1;stroke:none;stroke-width:0.37599999;stroke-miterlimit:4;stroke-dasharray:none;stroke-opacity:1"
       d="m 39.915216,162.13333 c -0.366667,-0.36666 -0.666667,-9.2678 -0.666667,-19.7803 V 123.2394 l -7.611178,-4.9697 C 21.342257,111.54753 12.86543,102.29609 8.3631418,92.868663 4.9168307,85.652369 4.7485488,84.80869 4.7485488,74.746965 c 0,-10.243963 0.1143049,-10.785782 3.9028495,-18.5 C 11.547561,50.349811 14.391472,46.494446 19.677029,41.3 57.598686,4.032031 136.07863,12.880586 157.15021,56.8 c 3.43149,7.152228 3.59834,7.990377 3.59834,18.075391 0,10.42921 -0.0587,10.693921 -4.24905,19.150333 -5.86271,11.831436 -15.4318,20.813856 -29.62707,27.810646 -14.08303,6.94148 -22.8913,9.03477 -40.77983,9.69139 -8.060773,0.29587 -15.036707,0.81567 -15.502076,1.1551 -0.46537,0.33943 -6.836393,7.25464 -14.157828,15.36714 -12.417842,13.75956 -14.805478,15.79534 -16.51748,14.08333 z m 8.896242,-13.58333 2.937091,-3.25 -3.25,2.93709 c -3.029455,2.73778 -3.709652,3.56291 -2.937091,3.56291 0.1721,0 1.6346,-1.4625 3.25,-3.25 z"
       id="path4240"
       inkscape:connector-curvature="0" />
    <path
       style="fill:#005388;fill-opacity:1;stroke:none;stroke-width:0.37599999;stroke-miterlimit:4;stroke-dasharray:none;stroke-opacity:1"
       d="m 189.74855,143.67494 -9,-10.12186 -13,-0.23712 c -12.47577,-0.22756 -19.40822,-1.42197 -27.48742,-4.73588 l -3.12078,-1.28008 7.66528,-5 c 25.03449,-16.32981 34.62338,-42.951756 23.9041,-66.365747 -1.35365,-2.956766 -2.46118,-5.613169 -2.46118,-5.903117 0,-1.005828 17.5313,0.722318 23.5,2.31651 15.57011,4.158654 30.13958,14.789213 35.56841,25.952354 3.49003,7.176448 3.48739,19.834018 -0.006,27 -3.06904,6.29609 -11.98424,15.11817 -19.10276,18.9032 -3.00303,1.59676 -5.68505,3.09488 -5.96005,3.32915 -0.275,0.23428 -0.725,6.23962 -1,13.34521 l -0.5,12.91925 -9,-10.12187 z"
       id="path4242"
       inkscape:connector-curvature="0" />
    <path
       style="fill:#005388;fill-opacity:1;stroke:none;stroke-width:0.37599999;stroke-miterlimit:4;stroke-dasharray:none;stroke-opacity:1"
       d="M 189.28754,142.47384 180.82653,132.8 170.28754,132.792 c -12.07785,-0.009 -21.08781,-1.25943 -27.65518,-3.83912 l -4.57191,-1.79586 6.55323,-4.2696 c 13.69472,-8.92246 24.50717,-23.379412 27.65327,-36.97422 1.86598,-8.063227 0.8019,-20.222117 -2.48981,-28.450084 -1.49703,-3.741989 -2.56589,-6.954937 -2.37523,-7.139883 0.75018,-0.727734 18.66116,1.580088 23.84664,3.07263 13.4074,3.859068 28.91702,15.370156 33.55432,24.903687 2.7844,5.724265 2.77215,21.333123 -0.0212,26.96684 -2.68446,5.41419 -12.08101,14.59626 -19.17608,18.73839 l -5.85708,3.41939 -0.73164,10.43769 c -0.40239,5.74073 -0.85239,11.30342 -1,12.36153 -0.2016,1.44527 -2.37311,-0.48261 -8.72937,-7.75 z"
       id="path4244"
       inkscape:connector-curvature="0" />
    <path
       style="fill:#005388;fill-opacity:1;stroke:none;stroke-width:0.37599999;stroke-miterlimit:4;stroke-dasharray:none;stroke-opacity:1"
       d="m 189.40385,142.59755 -8.34471,-9.53188 -14.65529,-0.52663 c -11.19891,-0.40243 -16.27606,-1.04174 -21.52741,-2.71073 -3.77965,-1.20125 -6.47965,-2.5211 -6,-2.933 0.47966,-0.4119 3.86111,-2.83997 7.51433,-5.39572 12.48635,-8.7353 21.59769,-20.98574 25.39766,-34.147833 2.20717,-7.645021 1.55769,-19.670559 -1.51503,-28.051757 -3.81458,-10.404714 -4.10516,-9.573734 3.10936,-8.892055 19.51645,1.844052 33.0408,7.498106 43.89267,18.349973 8.34564,8.34564 10.366,13.475862 9.79011,24.85967 -0.24593,4.861241 -1.09776,9.139132 -2.31966,11.649252 -2.62056,5.38337 -12.01021,14.57586 -19.14025,18.73834 l -5.85708,3.41933 -0.72922,10.93774 c -0.40107,6.01576 -0.85107,11.57437 -1,12.35246 -0.15108,0.78933 -3.95963,-2.79893 -8.61548,-8.11716 z"
       id="path4246"
       inkscape:connector-curvature="0" />
    <path
       style="fill:#005388;fill-opacity:1;stroke:none;stroke-width:0.37599999;stroke-miterlimit:4;stroke-dasharray:none;stroke-opacity:1"
       d="m 190.24855,151.74402 -11.5,-13.00921 -12,-0.33728 c -13.34054,-0.37495 -21.47319,-2.11976 -31.75,-6.81179 -7.83165,-3.57566 -8.82737,-5.94504 -3.26923,-7.77939 5.8241,-1.92213 17.71163,-10.31778 23.32794,-16.47552 15.52877,-17.02579 17.18579,-38.306383 4.50183,-57.81563 -2.51069,-3.861708 -0.88114,-4.68069 9.35149,-4.699887 27.09836,-0.05084 51.65052,12.796949 61.12282,31.984687 2.37844,4.817929 2.71463,6.678122 2.71096,15 -0.004,8.42226 -0.329,10.16302 -2.86726,15.34436 -3.55521,7.25721 -12.29956,16.3246 -19.85474,20.58822 l -5.7262,3.23147 -0.2738,16.58564 c -0.1641,9.93983 -0.67451,16.70944 -1.27381,16.8946 -0.55,0.16992 -6.175,-5.5452 -12.5,-12.70027 z m 16,-26.37567 c 7.03928,-3.75213 16.92261,-13.6396 20.05993,-20.06835 2.00323,-4.10485 2.44007,-6.521751 2.44007,-13.5 0,-11.124258 -2.87878,-17.318668 -12.0248,-25.874318 -8.06181,-7.54143 -18.39077,-12.64517 -30.75516,-15.196727 -8.02576,-1.656225 -21.72004,-2.636579 -21.72004,-1.554908 0,0.205726 1.10952,2.35919 2.46559,4.785475 1.35608,2.426285 3.12646,6.870464 3.93419,9.875953 0.80773,3.005489 1.49821,4.478844 1.53441,3.274122 0.0362,-1.204721 -1.09446,-5.406949 -2.51258,-9.338283 -1.41811,-3.931334 -2.37356,-7.3527 -2.12322,-7.603035 0.75597,-0.755975 17.81654,1.58542 23.70161,3.252813 14.66483,4.154926 31.01134,16.915192 34.3411,26.807047 1.92543,5.719925 2.16682,16.144534 0.50248,21.699611 -1.68619,5.628 -9.38421,14.59607 -16.84358,19.6225 -10.40642,7.01227 -9.98969,6.43433 -10.08761,13.98996 -0.0482,3.71789 -0.38568,8.98672 -0.75,11.70853 l -0.66239,4.94874 -8.42457,-9.56847 -8.42456,-9.56847 -14.57544,-0.52406 c -11.12016,-0.39983 -16.20454,-1.04184 -21.44754,-2.70817 -3.77965,-1.20125 -6.47965,-2.51823 -6,-2.92662 0.47966,-0.40838 4.02211,-3.0393 7.87211,-5.84649 3.85,-2.80719 8.575,-6.79752 10.5,-8.86742 2.41518,-2.59696 1.6403,-2.13114 -2.5,1.50291 -3.3,2.89649 -9.08101,7.10815 -12.84668,9.35923 -6.76147,4.04195 -6.81615,4.10888 -4.39359,5.37818 6.79474,3.56013 17.3786,5.61738 30.16566,5.86349 l 12.92538,0.24878 9.57462,10.85612 9.57461,10.85611 0.5,-13.9763 0.5,-13.9763 z M 162.3761,106.05 c 1.24387,-1.58606 1.2085,-1.62143 -0.37755,-0.37755 -1.66575,1.30636 -2.19548,2.12755 -1.37245,2.12755 0.20766,0 0.99516,-0.7875 1.75,-1.75 z m 5.4205,-8.34293 c 0.87968,-1.701112 1.42189,-3.270461 1.20491,-3.487443 -0.21698,-0.216982 -1.14288,1.174837 -2.05756,3.09293 -2.05658,4.312703 -1.34401,4.642393 0.85265,0.394513 z M 172.80354,77.8 l 0.32226,-8.5 -0.85174,8.5 c -0.46846,4.675 -1.34084,9.766795 -1.93863,11.3151 -1.62017,4.196358 -1.1566,4.715946 0.61106,0.6849 0.85671,-1.953668 1.67717,-7.255377 1.85705,-12 z"
       id="path4248"
       inkscape:connector-curvature="0" />
    <path
       style="fill:#005388;fill-opacity:1;stroke:none;stroke-width:0.37599999;stroke-miterlimit:4;stroke-dasharray:none;stroke-opacity:1"
       d="m 190.45352,151.92881 -11.29503,-12.84507 -12.70497,-0.59089 c -6.98774,-0.32499 -15.40497,-1.31966 -18.70497,-2.21037 -8.98875,-2.42619 -19.50454,-7.4914 -19.47469,-9.38052 0.0154,-0.97805 2.64702,-2.86533 6.75687,-4.84581 18.21497,-8.77755 31.10365,-25.302948 32.86303,-42.135803 0.95082,-9.097016 -2.37537,-21.228834 -8.33623,-30.405147 -2.50438,-3.855309 -0.87871,-4.680645 9.25736,-4.699887 27.19808,-0.05163 51.79053,12.757949 61.17315,31.863541 2.42583,4.939638 2.76051,6.772927 2.76051,15.121146 0,8.37669 -0.33052,10.17307 -2.79527,15.1922 -3.79404,7.72605 -10.05724,14.41858 -18.53717,19.8078 l -7.08073,4.5 -0.29341,16.41767 c -0.17517,9.801 -0.69644,16.54634 -1.29342,16.73693 -0.55,0.1756 -6.08277,-5.46101 -12.29503,-12.52579 z m 9.65408,-9.37881 -0.14094,-13.25 -0.83573,10.89334 c -0.45965,5.99134 -1.02676,11.08437 -1.26024,11.31785 -0.23348,0.23348 -4.18148,-3.87324 -8.77332,-9.12604 l -8.34882,-9.55056 -11.5,-0.0347 c -11.38808,-0.0343 -21.41681,-1.52911 -27.81431,-4.14576 l -3.31086,-1.35417 7.94004,-5.80511 c 4.36703,-3.19281 9.00769,-6.97873 10.31259,-8.41315 1.3049,-1.43442 -0.69788,-0.10469 -4.4506,2.95495 -3.75273,3.05965 -8.81545,6.61991 -11.25049,7.91169 -2.43504,1.29179 -4.28698,2.79936 -4.11542,3.35016 1.0401,3.33926 26.35534,8.19536 37.36398,7.16736 l 6.22709,-0.5815 9.63508,10.9578 c 5.2993,6.02679 9.82135,10.9578 10.04899,10.9578 0.22765,0 0.35048,-5.9625 0.27296,-13.25 z m 17.17856,-25.76088 c 3.12749,-3.03098 6.98287,-7.98098 8.56749,-11 2.53735,-4.83414 2.87503,-6.503375 2.82993,-13.98912 -0.0412,-6.83467 -0.52004,-9.479606 -2.44414,-13.5 C 223.32688,72.214234 213.50114,62.166578 206.87817,58.501468 196.33919,52.669261 181.37152,48.8 169.34946,48.8 h -5.01599 l 2.95675,6.25 c 1.62621,3.4375 2.95711,6.8875 2.95754,7.666667 4.3e-4,0.779166 0.28613,1.13132 0.63489,0.782563 0.34876,-0.348757 -0.38659,-3.36341 -1.6341,-6.69923 -1.24751,-3.33582 -2.01176,-6.321573 -1.69833,-6.635006 0.82233,-0.822329 17.22985,1.436051 23.69833,3.261906 12.7235,3.591462 27.28204,13.879106 32.68297,23.095098 3.18621,5.436868 4.34459,17.536274 2.35814,24.631172 -1.66286,5.93916 -7.41156,13.25606 -14.65033,18.64683 -11.6558,8.68017 -12.04054,9.05001 -5.96515,5.73414 3.2591,-1.77878 8.48449,-5.71404 11.61198,-8.74502 z M 168.24855,96.8 c 0.5887,-1.1 0.84537,-2 0.57037,-2 -0.275,0 -0.98167,0.9 -1.57037,2 -0.5887,1.1 -0.84537,2 -0.57037,2 0.275,0 0.98167,-0.9 1.57037,-2 z m 3.66228,-13.25 c -0.27741,-0.6875 -0.50439,-0.125 -0.50439,1.25 0,1.375 0.22698,1.9375 0.50439,1.25 0.27741,-0.6875 0.27741,-1.8125 0,-2.5 z m 1.04345,-9 c -0.23835,-1.2375 -0.43337,-0.225 -0.43337,2.25 0,2.475 0.19502,3.4875 0.43337,2.25 0.23835,-1.2375 0.23835,-3.2625 0,-4.5 z m -1.02262,-8.9375 c -0.31922,-0.797733 -0.55618,-0.560776 -0.60416,0.604167 -0.0434,1.054166 0.19292,1.644791 0.52522,1.3125 0.33229,-0.332292 0.36781,-1.194792 0.0789,-1.916667 z"
       id="path4250"
       inkscape:connector-curvature="0" />
    <path
       style="fill:#005388;fill-opacity:1;stroke:none;stroke-width:0.37599999;stroke-miterlimit:4;stroke-dasharray:none;stroke-opacity:1"
       d="M 190.25482,151.78806 178.7611,138.8 l -8.50628,-0.008 c -14.1131,-0.0125 -25.28208,-2.3502 -36.75627,-7.69307 -6.96133,-3.24149 -6.85452,-5.09847 0.5,-8.69328 31.21102,-15.25558 42.65668,-45.408285 26.78207,-70.555298 C 156.80906,45.559443 157.59815,44.8 168.1067,44.8 c 28.15197,0 52.33411,12.436916 61.84658,31.807805 2.46475,5.01913 2.79527,6.815509 2.79527,15.192195 0,8.39924 -0.32715,10.16622 -2.82343,15.24976 -3.73951,7.6153 -10.99274,15.33341 -19.03054,20.25024 l -6.53901,4 -0.30351,16.41767 c -0.181,9.79084 -0.70715,16.54699 -1.30351,16.73806 -0.55,0.17622 -6.17218,-5.52423 -12.49373,-12.66767 z m 9.8538,-8.23806 -0.13993,-12.25 -0.81347,9.87006 c -0.4474,5.42854 -1.00931,10.06591 -1.24868,10.30528 -0.23937,0.23937 -4.18721,-3.75216 -8.77299,-8.87006 L 180.79577,133.3 166.27216,132.66898 c -10.99,-0.4775 -16.22672,-1.17762 -21.52361,-2.87759 l -7,-2.24657 2.88879,-2.12241 c 6.13474,-4.50722 6.87552,-5.5581 1.61121,-2.28565 -3.025,1.88043 -5.5,3.81143 -5.5,4.2911 0,3.05967 28.07401,8.15558 38.05795,6.90817 l 5.16439,-0.64525 9.77423,11.05461 c 5.37584,6.08004 9.93831,11.05461 10.13884,11.05461 0.20052,0 0.30162,-5.5125 0.22466,-12.25 z m 8.55786,-19.80009 c 7.00025,-4.43942 14.53171,-12.60684 17.45867,-18.93285 3.6627,-7.916189 3.6047,-18.241967 -0.14806,-26.35752 -7.4193,-16.044652 -28.24176,-27.571629 -52.99333,-29.336253 l -8.76479,-0.624872 2.76479,6.031955 c 3.07531,6.70943 4.42761,7.633071 1.88997,1.290881 -2.4724,-6.179132 -2.43114,-6.219122 5.62482,-5.451797 16.68842,1.589559 30.5975,7.194033 41.11213,16.565568 8.38952,7.477457 10.92059,12.407594 11.4346,22.27287 0.2319,4.45066 -0.0966,10.011208 -0.73004,12.356778 -1.58448,5.86735 -8.26111,13.72786 -16.97534,19.98533 -7.96362,5.71849 -8.38326,7.08935 -0.67342,2.19991 z M 150.3761,118.05 c 1.24387,-1.58606 1.2085,-1.62143 -0.37755,-0.37755 -0.9625,0.75484 -1.75,1.54234 -1.75,1.75 0,0.82303 0.82118,0.2933 2.12755,-1.37245 z m 5,-4 c 1.24387,-1.58606 1.2085,-1.62143 -0.37755,-0.37755 -0.9625,0.75484 -1.75,1.54234 -1.75,1.75 0,0.82303 0.82118,0.2933 2.12755,-1.37245 z m 17.55556,-37.4375 c -0.31922,-0.797733 -0.55618,-0.560776 -0.60416,0.604167 -0.0434,1.054166 0.19292,1.644791 0.52522,1.3125 0.33229,-0.332292 0.36781,-1.194792 0.0789,-1.916667 z"
       id="path4252"
       inkscape:connector-curvature="0" />
    <path
       style="fill:#005388;fill-opacity:1;stroke:none;stroke-width:0.37599999;stroke-miterlimit:4;stroke-dasharray:none;stroke-opacity:1"
       d="M 190.25482,151.78806 178.7611,138.8 l -8.50628,-0.008 c -14.1131,-0.0125 -25.28208,-2.3502 -36.75627,-7.69307 -6.96133,-3.24149 -6.85452,-5.09847 0.5,-8.69328 31.21102,-15.25558 42.65668,-45.408285 26.78207,-70.555298 C 156.80906,45.559443 157.59815,44.8 168.1067,44.8 c 28.15197,0 52.33411,12.436916 61.84658,31.807805 2.46475,5.01913 2.79527,6.815509 2.79527,15.192195 0,8.39924 -0.32715,10.16622 -2.82343,15.24976 -3.73951,7.6153 -10.99274,15.33341 -19.03054,20.25024 l -6.53901,4 -0.30351,16.41767 c -0.181,9.79084 -0.70715,16.54699 -1.30351,16.73806 -0.55,0.17622 -6.17218,-5.52423 -12.49373,-12.66767 z m 9.8538,-8.23806 -0.13993,-12.25 -0.81347,9.87006 c -0.4474,5.42854 -1.00931,10.06591 -1.24868,10.30528 -0.23937,0.23937 -4.18721,-3.75216 -8.77299,-8.87006 L 180.79577,133.3 166.27216,132.66898 c -10.99,-0.4775 -16.22672,-1.17762 -21.52361,-2.87759 l -7,-2.24657 2.88879,-2.12241 c 6.13474,-4.50722 6.87552,-5.5581 1.61121,-2.28565 -3.025,1.88043 -5.5,3.81143 -5.5,4.2911 0,3.05967 28.07401,8.15558 38.05795,6.90817 l 5.16439,-0.64525 9.77423,11.05461 c 5.37584,6.08004 9.93831,11.05461 10.13884,11.05461 0.20052,0 0.30162,-5.5125 0.22466,-12.25 z m 8.55786,-19.80009 c 7.00025,-4.43942 14.53171,-12.60684 17.45867,-18.93285 3.6627,-7.916189 3.6047,-18.241967 -0.14806,-26.35752 -7.4193,-16.044652 -28.24176,-27.571629 -52.99333,-29.336253 l -8.76479,-0.624872 2.76479,6.031955 c 3.07531,6.70943 4.42761,7.633071 1.88997,1.290881 -2.4724,-6.179132 -2.43114,-6.219122 5.62482,-5.451797 16.68842,1.589559 30.5975,7.194033 41.11213,16.565568 8.38952,7.477457 10.92059,12.407594 11.4346,22.27287 0.2319,4.45066 -0.0966,10.011208 -0.73004,12.356778 -1.58448,5.86735 -8.26111,13.72786 -16.97534,19.98533 -7.96362,5.71849 -8.38326,7.08935 -0.67342,2.19991 z M 150.3761,118.05 c 1.24387,-1.58606 1.2085,-1.62143 -0.37755,-0.37755 -0.9625,0.75484 -1.75,1.54234 -1.75,1.75 0,0.82303 0.82118,0.2933 2.12755,-1.37245 z m 5,-4 c 1.24387,-1.58606 1.2085,-1.62143 -0.37755,-0.37755 -0.9625,0.75484 -1.75,1.54234 -1.75,1.75 0,0.82303 0.82118,0.2933 2.12755,-1.37245 z m 17.55556,-37.4375 c -0.31922,-0.797733 -0.55618,-0.560776 -0.60416,0.604167 -0.0434,1.054166 0.19292,1.644791 0.52522,1.3125 0.33229,-0.332292 0.36781,-1.194792 0.0789,-1.916667 z"
       id="path4254"
       inkscape:connector-curvature="0" />
    <path
       style="fill:#005388;fill-opacity:1;stroke:none;stroke-width:0.37599999;stroke-miterlimit:4;stroke-dasharray:none;stroke-opacity:1"
       d="m 190.23067,151.82452 -11.48212,-12.9874 -9.06634,-0.0186 c -13.73618,-0.0281 -24.68086,-2.36298 -36.18366,-7.71918 -6.50521,-3.0291 -6.86178,-5.26882 -1.24226,-7.80287 12.59366,-5.67895 25.35871,-17.38253 30.5357,-27.99651 6.67408,-13.683362 6.47698,-25.913327 -0.64774,-40.190493 -2.25609,-4.520956 -3.75855,-8.722411 -3.35353,-9.377746 1.04113,-1.684583 24.24183,-0.550789 31.95783,1.561746 11.32765,3.101354 22.07192,9.073131 29.56241,16.431087 9.80998,9.636418 12.43759,15.567718 12.43759,28.075406 0,8.47465 -0.31636,10.14759 -2.93115,15.5 -3.49612,7.15649 -12.92087,16.93517 -20.29576,21.05795 l -5.22691,2.92199 -0.27309,16.4277 c -0.16643,10.0114 -0.67065,16.55982 -1.29097,16.76599 -0.55984,0.18606 -6.18484,-5.50604 -12.5,-12.64911 z m 9.86805,-6.77452 c -0.0824,-5.3625 -0.30901,-8.4 -0.50355,-6.75 -0.19455,1.65 -0.61659,5.41921 -0.93787,8.37602 l -0.58416,5.37603 -5.07899,-4.87603 -5.07899,-4.87602 5.38916,6.25 c 2.96403,3.4375 5.73904,6.25 6.16669,6.25 0.42764,0 0.71011,-4.3875 0.62771,-9.75 z m -11.85017,-3.54705 c 0,-0.16338 -1.9125,-2.07588 -4.25,-4.25 l -4.25,-3.95295 3.95295,4.25 c 3.6762,3.95246 4.54705,4.70953 4.54705,3.95295 z m -12.5,-7.70295 c 2.03216,-0.5171 -0.22615,-0.80509 -7,-0.89269 -5.5,-0.0711 -11.8,-0.41306 -14,-0.75986 -2.2,-0.34679 -3.71173,-0.31606 -3.35939,0.0683 0.35233,0.38435 4.40233,1.06173 9,1.50528 10.48349,1.01138 11.67113,1.01749 15.35939,0.079 z m -28,-3 c -1.1,-0.47269 -2.675,-0.85943 -3.5,-0.85943 -0.94548,0 -0.76064,0.31772 0.5,0.85943 1.1,0.47269 2.675,0.85943 3.5,0.85943 0.94548,0 0.76064,-0.31771 -0.5,-0.85943 z m -7.354,-2.37627 -2.35399,-1.30541 2.85399,-2.23015 2.854,-2.23016 -3.25,1.7866 c -3.5741,1.96477 -4.21445,3.95671 -1.5,4.66606 3.27613,0.85615 3.7543,0.62085 1.396,-0.68694 z m 75.9787,-11.44308 c 9.27518,-8.6635 11.88876,-14.10365 11.83141,-24.626994 -0.0241,-4.429511 -0.63317,-9.703488 -1.35339,-11.719949 -2.1509,-6.022058 -8.3927,-13.582785 -15.2573,-18.481261 -6.12645,-4.371746 -19.11796,-10.32811 -22.34542,-10.244959 -0.825,0.02125 0.85724,0.876575 3.73832,1.900712 13.36572,4.751118 25.75748,13.862566 30.98509,22.782805 2.11682,3.612084 2.73674,6.157045 3.07332,12.616888 0.2319,4.45066 -0.0774,9.939735 -0.68728,12.197948 -1.85164,6.8559 -8.87074,14.71574 -21.15395,23.68773 -2.36129,1.72475 -2.32392,1.72475 0.97409,0 1.88628,-0.98646 6.47408,-4.63728 10.19511,-8.11292 z M 168.27653,54.373589 c -1.54479,-4.063088 -1.34441,-4.419759 2.72202,-4.845121 3.43565,-0.35938 3.35182,-0.406353 -1,-0.560365 -5.26461,-0.186315 -5.49278,0.20642 -3.07078,5.285413 1.93264,4.052787 2.8759,4.136761 1.34876,0.120073 z M 184.74855,50.8 c -1.65,-0.419854 -4.575,-0.752755 -6.5,-0.73978 l -3.5,0.02359 4,0.716189 c 2.2,0.393904 5.125,0.726805 6.5,0.73978 2.20891,0.02084 2.15069,-0.06529 -0.5,-0.73978 z"
       id="path4256"
       inkscape:connector-curvature="0" />
    <path
       style="fill:#005388;fill-opacity:1;stroke:none;stroke-width:0.37599999;stroke-miterlimit:4;stroke-dasharray:none;stroke-opacity:1"
       d="m 190.23446,151.95819 -11.37167,-12.88928 -13.05712,-0.53329 c -10.39257,-0.42447 -14.79171,-1.08484 -21.55712,-3.23602 -15.27808,-4.85792 -19.61213,-8.76076 -12.84257,-11.56481 6.31766,-2.61686 17.4756,-10.7357 23.04328,-16.76696 3.1354,-3.39645 7.16056,-9.211169 8.94481,-12.921597 2.74952,-5.71778 3.3081,-8.140599 3.66403,-15.89271 0.4701,-10.238716 -0.89673,-15.99425 -5.98626,-25.207351 -4.5244,-8.190091 -4.08264,-8.507716 10.94599,-7.870183 14.61834,0.620128 23.97213,2.902614 34.44224,8.404503 9.21802,4.843934 18.62954,13.693307 22.85845,21.493132 3.29283,6.073322 3.42926,6.746374 3.4107,16.826376 -0.0173,9.3922 -0.29826,11.03228 -2.66302,15.5451 -3.76196,7.17918 -10.76859,14.58304 -18.82092,19.88793 l -6.94724,4.57687 -0.27474,16.16277 c -0.17627,10.36907 -0.65874,16.29038 -1.34596,16.51878 -0.58917,0.19581 -6.18846,-5.44415 -12.44288,-12.53326 z m 9.87791,-5.40819 c -0.13278,-8.04376 -0.28481,-7.92601 -1.45781,1.12908 l -0.56727,4.37907 -4.59037,-4.37907 -4.59036,-4.37908 4.92099,5.73738 c 2.70655,3.15556 5.2585,5.74306 5.671,5.75 0.4125,0.007 0.68872,-3.69988 0.61382,-8.23738 z m -12.86382,-6.07569 c 0,-0.17912 -1.2375,-1.41662 -2.75,-2.75 l -2.75,-2.42431 2.42431,2.75 c 2.26589,2.57029 3.07569,3.20859 3.07569,2.42431 z m -11,-7.28781 c 0,-0.21257 -4.3875,-0.30704 -9.75,-0.20991 -9.66759,0.17509 -9.69083,0.18143 -2.75,0.75 6.66442,0.54592 12.5,0.29378 12.5,-0.54009 z m -20.73097,-1.04244 c -0.67703,-0.27392 -2.02703,-0.29059 -3,-0.037 -0.97297,0.25354 -0.41903,0.47766 1.23097,0.49804 1.65,0.0204 2.44606,-0.18706 1.76903,-0.46099 z m -6.53986,-0.94823 c -0.3323,-0.33229 -1.1948,-0.36781 -1.91667,-0.0789 -0.79773,0.31923 -0.56078,0.55619 0.60417,0.60417 1.05416,0.0434 1.64479,-0.19293 1.3125,-0.52522 z m -8.58317,-2.7721 -2.35399,-1.30541 2.85399,-2.21436 c 1.65291,-1.28247 1.9777,-1.79327 0.77175,-1.21376 -1.14523,0.55033 -2.63268,1.66385 -3.30545,2.47448 -0.98893,1.1916 -0.87742,1.67503 0.58225,2.52419 0.993,0.57767 2.25545,1.04805 2.80545,1.04529 0.55,-0.003 -0.0593,-0.59246 -1.354,-1.31043 z m 74.67761,-10.15505 c 2.84057,-2.55392 6.16675,-6.06665 7.3915,-7.80608 1.22476,-1.73943 -0.6851,-0.19782 -4.24414,3.4258 -3.55903,3.62362 -7.82097,7.58597 -9.47097,8.80521 -1.65,1.21924 -2.06424,1.76719 -0.92053,1.21767 1.14371,-0.54951 4.40357,-3.08869 7.24414,-5.6426 z m 10.98326,-13.99514 c -0.30789,-0.30789 -0.86705,0.24711 -1.24258,1.23333 -0.54268,1.4252 -0.42782,1.54006 0.5598,0.5598 0.68341,-0.67834 0.99067,-1.48524 0.68278,-1.79313 z M 228.10798,91.8 c 0,-4.125 -0.30587,-8.270713 -0.67972,-9.212695 -0.37384,-0.941983 -0.67971,3.20373 -0.67971,9.212695 0,6.008965 0.30587,10.15468 0.67971,9.2127 0.37385,-0.94199 0.67972,-5.0877 0.67972,-9.2127 z m -3.71487,-16.266094 c -2.97785,-4.818263 -13.00197,-14.110349 -17.93915,-16.629115 -5.96442,-3.04282 -5.2082,-2.008022 1.60643,2.198207 6.20201,3.8281 14.44707,11.976387 16.35434,16.162387 0.63729,1.398687 1.36193,2.339835 1.61033,2.09144 0.24839,-0.248395 -0.48598,-1.968708 -1.63195,-3.822919 z M 168.2238,54.2349 c -1.43476,-3.77371 -1.2518,-4.260161 1.77475,-4.718646 2.21205,-0.335098 2.01643,-0.4459 -1,-0.566422 -4.14611,-0.165659 -4.47226,0.552798 -2.22432,4.899828 1.87718,3.630066 2.77385,3.868367 1.44957,0.38524 z M 199.24855,55.3 c -1.375,-0.786021 -2.95,-1.429129 -3.5,-1.429129 -0.55,0 0.125,0.643108 1.5,1.429129 1.375,0.786021 2.95,1.429129 3.5,1.429129 0.55,0 -0.125,-0.643108 -1.5,-1.429129 z m -15,-4.5 c -1.375,-0.440352 -3.85,-0.786257 -5.5,-0.768679 -2.90726,0.03097 -2.89181,0.05474 0.5,0.768679 4.98878,1.050092 8.27891,1.050092 5,0 z"
       id="path4258"
       inkscape:connector-curvature="0" />
    <path
       style="fill:#005388;fill-opacity:1;stroke:none;stroke-width:0.37599999;stroke-miterlimit:4;stroke-dasharray:none;stroke-opacity:1"
       d="M 190.27883,152.06238 178.88342,139.3 166.31599,138.67352 c -13.72841,-0.68435 -22.06559,-2.49251 -31.75959,-6.88797 -8.56827,-3.88504 -8.34178,-5.331 1.70317,-10.87322 28.77025,-15.87372 38.71299,-43.079418 24.8393,-67.966158 -4.56276,-8.184714 -4.11493,-8.50758 10.91896,-7.872169 7.00189,0.295936 15.43072,1.259823 18.73072,2.14197 16.232,4.339096 32.04169,15.716861 38.56997,27.757651 3.29517,6.077644 3.42895,6.739201 3.40253,16.826376 -0.0245,9.37097 -0.31088,11.04248 -2.66301,15.5451 -3.72826,7.1369 -10.78993,14.6235 -18.84373,19.97766 l -6.9168,4.59828 -0.27448,16.1072 c -0.17029,9.99312 -0.66817,16.23803 -1.31163,16.45186 -0.57044,0.18957 -6.16509,-5.3984 -12.43257,-12.41772 z m 9.89077,-5.0714 c -0.0863,-7.30954 -0.41557,-7.2682 -1.42158,0.17844 l -0.65783,4.86942 -3.63726,-3.36942 -3.63725,-3.36942 3.96643,4.57545 c 2.18154,2.5165 4.30394,4.40244 4.71644,4.19098 0.4125,-0.21145 0.71447,-3.39541 0.67105,-7.07545 z m -12.92105,-6.53599 c 0,-0.18976 -1.0125,-1.20226 -2.25,-2.25 l -2.25,-1.90499 1.90499,2.25 c 1.79021,2.11445 2.59501,2.70524 2.59501,1.90499 z m -15.75,-7.38719 c -2.3375,-0.21054 -6.1625,-0.21054 -8.5,0 -2.3375,0.21053 -0.425,0.38279 4.25,0.38279 4.675,0 6.5875,-0.17226 4.25,-0.38279 z m -16.52083,-0.87197 c -0.3323,-0.33229 -1.1948,-0.36781 -1.91667,-0.0789 -0.79773,0.31923 -0.56078,0.55619 0.60417,0.60417 1.05416,0.0434 1.64479,-0.19293 1.3125,-0.52522 z m -14.94437,-3.76243 c -1.36415,-1.03631 -1.46649,-1.58278 -0.5,-2.66997 0.96721,-1.08802 0.83965,-1.08145 -0.6251,0.0322 -1.76107,1.33892 -1.7636,1.45524 -0.0589,2.70177 2.32239,1.69818 3.42514,1.63858 1.18397,-0.064 z M 215.44794,117.55 c 3.53503,-3.4375 4.37382,-4.41087 1.86397,-2.16306 -2.50985,2.24782 -5.86155,5.06032 -7.44822,6.25 -1.58667,1.18969 -2.42546,2.16306 -1.86398,2.16306 0.56149,0 3.91319,-2.8125 7.44823,-6.25 z M 227.98205,88.576433 C 227.7708,86.224395 227.59499,87.9 227.59136,92.3 c -0.004,4.4 0.16921,6.324395 0.38408,4.276433 0.21488,-2.047962 0.21785,-5.647962 0.007,-8 z m -2.60941,-11.0431 c -0.98762,-0.980267 -1.10248,-0.865403 -0.5598,0.559795 0.37553,0.986221 0.93469,1.541221 1.24258,1.233333 0.30789,-0.307887 6.3e-4,-1.114794 -0.68278,-1.793128 z m -2.04438,-3.584399 c -1.41948,-2.652309 -12.67545,-12.888521 -16.146,-14.683212 -4.5395,-2.347469 -3.47941,-1.111206 2.38738,2.784122 2.9266,1.943152 7.3141,5.811601 9.75,8.596552 4.85661,5.552539 5.49367,6.077385 4.00862,3.302538 z M 200.24855,55.8 c -0.825,-0.533156 -1.95,-0.969374 -2.5,-0.969374 -0.55,0 -0.325,0.436218 0.5,0.969374 0.825,0.533156 1.95,0.969374 2.5,0.969374 0.55,0 0.325,-0.436218 -0.5,-0.969374 z m -31.17668,-6.078947 c 1.09162,-0.0514 1.22899,-0.258785 0.39369,-0.59433 -2.25581,-0.90617 -4.23982,0.453923 -3.4797,2.385423 0.66248,1.683375 0.72422,1.685587 1.05647,0.03785 0.19408,-0.9625 1.10737,-1.785526 2.02954,-1.828947 z m 11.42668,0.416666 c -0.6875,-0.277412 -1.8125,-0.277412 -2.5,0 -0.6875,0.277413 -0.125,0.504386 1.25,0.504386 1.375,0 1.9375,-0.226973 1.25,-0.504386 z"
       id="path4260"
       inkscape:connector-curvature="0" />
    <path
       style="fill:#005388;fill-opacity:1;stroke:none;stroke-width:0.37599999;stroke-miterlimit:4;stroke-dasharray:none;stroke-opacity:1"
       d="M 190.21398,152.07757 178.8448,139.3 166.29668,138.67352 c -13.71067,-0.68451 -22.0502,-2.49428 -31.74028,-6.88797 -8.62166,-3.90925 -8.37561,-5.33011 1.90242,-10.98555 11.31316,-6.22502 21.28544,-16.17732 26.22561,-26.173088 3.18418,-6.442746 3.85529,-8.946555 4.29739,-16.032767 0.60185,-9.64697 -0.84821,-15.980092 -5.77119,-25.205547 -4.64005,-8.695249 -4.30464,-8.9533 10.8072,-8.314595 7.00189,0.295936 15.43072,1.259823 18.73072,2.14197 16.232,4.339096 32.04169,15.716861 38.56997,27.757651 3.28725,6.063038 3.43003,6.763443 3.43003,16.826376 0,9.44173 -0.2684,11.00848 -2.66301,15.5451 -3.78283,7.16659 -10.8425,14.64017 -18.87123,19.97766 l -6.9168,4.59828 -0.27448,16.1072 c -0.17788,10.43856 -0.65552,16.23384 -1.35718,16.46704 -0.59548,0.19792 -6.19883,-5.39005 -12.45187,-12.41771 z m 9.91577,-5.08659 -0.11879,-5.69098 -0.97323,5.34893 -0.97322,5.34893 -3.15798,-2.84683 c -3.04503,-2.74501 -3.03607,-2.71418 0.25047,0.86215 1.87465,2.03995 3.78715,3.47495 4.25,3.18889 0.46285,-0.28606 0.78809,-3.08105 0.72275,-6.21109 z M 169.5123,133.09607 c -1.22994,-0.23736 -3.47994,-0.24351 -5,-0.0136 -1.52006,0.22985 -0.51375,0.42406 2.23625,0.43157 2.75,0.007 3.99369,-0.18056 2.76375,-0.41792 z M 211.3761,121.05 c 1.24387,-1.58606 1.2085,-1.62143 -0.37755,-0.37755 -0.9625,0.75484 -1.75,1.54234 -1.75,1.75 0,0.82303 0.82118,0.2933 2.12755,-1.37245 z m 4.87245,-3.75 c 1.29174,-1.375 2.12363,-2.5 1.84863,-2.5 -0.275,0 -1.55689,1.125 -2.84863,2.5 -1.29175,1.375 -2.12363,2.5 -1.84863,2.5 0.275,0 1.55688,-1.125 2.84863,-2.5 z M 227.96613,90.06375 C 227.73628,88.543687 227.54207,89.55 227.53456,92.3 c -0.008,2.75 0.18056,3.993687 0.41792,2.76375 0.23736,-1.229938 0.24351,-3.479938 0.0136,-5 z M 218.7015,68.716244 c -2.17413,-2.246066 -5.30295,-5.028144 -6.95295,-6.182396 -1.65,-1.154252 -0.075,0.663513 3.5,4.039477 7.43733,7.023262 9.28978,8.172906 3.45295,2.142919 z m -10.45295,-8.38106 c 0,-0.255649 -1.0125,-0.955474 -2.25,-1.555166 -2.16063,-1.04704 -2.1729,-1.028576 -0.30887,0.464816 2.04026,1.634588 2.55887,1.85557 2.55887,1.09035 z M 168.64849,49.565313 c 0.70033,-0.467721 0.52472,-0.740252 -0.48327,-0.75 -2.18219,-0.0211 -2.89049,0.88934 -2.16425,2.781891 0.51097,1.33157 0.69328,1.357242 1.08104,0.152234 0.25654,-0.797191 0.96145,-1.780047 1.56648,-2.184125 z"
       id="path4262"
       inkscape:connector-curvature="0" />
    <path
       style="fill:#005388;fill-opacity:1;stroke:none;stroke-width:0.37599999;stroke-miterlimit:4;stroke-dasharray:none;stroke-opacity:1"
       d="m 190.03621,151.95004 -11.62598,-12.87875 -12.83084,-0.54366 c -8.69357,-0.36837 -15.19716,-1.22728 -20.16948,-2.66372 -9.81614,-2.83577 -17.173,-6.63097 -17.11812,-8.83076 0.0276,-1.10428 3.1804,-3.54737 8.68925,-6.73315 11.72376,-6.77988 20.97695,-16.10978 25.9432,-26.158311 3.70191,-7.490301 3.82431,-8.075688 3.82431,-18.289826 0,-10.396096 -0.0645,-10.686969 -4.3694,-19.704162 -2.53136,-5.302266 -4.04857,-9.671417 -3.60672,-10.386347 1.28559,-2.080115 25.4431,-0.626224 33.97612,2.044813 16.27659,5.094956 30.21803,15.451913 36.56997,27.167457 3.28725,6.063038 3.43003,6.763443 3.43003,16.826376 0,9.44173 -0.2684,11.00848 -2.66301,15.5451 -3.78283,7.16659 -10.8425,14.64017 -18.87123,19.97766 l -6.9168,4.59828 -0.27448,16.1072 c -0.17133,10.05426 -0.6665,16.23747 -1.31766,16.45387 -0.57374,0.19067 -6.27487,-5.44876 -12.66916,-12.53207 z M 200.15429,146.8 c -0.0692,-4.896 -0.39268,-4.58189 -1.38744,1.34744 -0.64373,3.83699 -0.65142,3.84244 -2.83189,2.00715 -1.81644,-1.52888 -1.77448,-1.37434 0.24796,0.91327 2.97976,3.37044 4.06292,2.20642 3.97137,-4.26786 z m -31.63671,-13.65594 c -0.67703,-0.27392 -2.02703,-0.29059 -3,-0.037 -0.97297,0.25354 -0.41903,0.47766 1.23097,0.49804 1.65,0.0204 2.44606,-0.18706 1.76903,-0.46099 z M 216.3761,117.05 c 1.24387,-1.58606 1.2085,-1.62143 -0.37755,-0.37755 -0.9625,0.75484 -1.75,1.54234 -1.75,1.75 0,0.82303 0.82118,0.2933 2.12755,-1.37245 z m 11.55556,-25.4375 c -0.31922,-0.797733 -0.55618,-0.560776 -0.60416,0.604167 -0.0434,1.054166 0.19292,1.644791 0.52522,1.3125 0.33229,-0.332292 0.36781,-1.194792 0.0789,-1.916667 z m -6.68311,-20.109552 c 0,-0.163379 -1.9125,-2.075879 -4.25,-4.25 l -4.25,-3.952948 3.95295,4.25 c 3.6762,3.952458 4.54705,4.709525 4.54705,3.952948 z M 168.64849,49.565313 c 0.70033,-0.467721 0.52472,-0.740252 -0.48327,-0.75 -2.18219,-0.0211 -2.89049,0.88934 -2.16425,2.781891 0.51097,1.33157 0.69328,1.357242 1.08104,0.152234 0.25654,-0.797191 0.96145,-1.780047 1.56648,-2.184125 z"
       id="path4264"
       inkscape:connector-curvature="0" />
    <path
       style="fill:#005388;fill-opacity:1;stroke:none;stroke-width:0.37599999;stroke-miterlimit:4;stroke-dasharray:none;stroke-opacity:1"
       d="m 189.9708,151.96236 -11.6119,-12.89292 -12.80518,-0.54075 c -13.88994,-0.58657 -21.35764,-2.20122 -31.05517,-6.7147 -8.55757,-3.98291 -8.28345,-5.31029 2.37234,-11.48791 14.77541,-8.56592 25.5405,-21.253991 28.83532,-33.986179 2.82166,-10.903782 1.44791,-20.841033 -4.51375,-32.651015 -4.5964,-9.105423 -4.37558,-9.27349 11.32879,-8.622333 9.58174,0.397292 15.15656,1.152354 20.2273,2.739614 16.39929,5.133364 30.17746,15.379289 36.59401,27.212569 3.25959,6.011274 3.40599,6.732589 3.40599,16.781264 0,9.61212 -0.24113,10.95809 -2.85164,15.91733 -3.71106,7.04999 -11.22452,14.92009 -19.21258,20.12451 l -6.38721,4.16143 -0.27429,16.06608 c -0.17774,10.41129 -0.65544,16.19277 -1.3572,16.42601 -0.59561,0.19796 -6.30828,-5.44189 -12.69483,-12.533 z m 9.95601,-4.24008 0.17826,-4.42228 -0.9911,4.27018 c -0.6176,2.66095 -1.4025,4.01592 -2.08277,3.59549 -0.67097,-0.41468 -0.80413,-0.20943 -0.34552,0.53261 1.45661,2.35684 3.06541,0.38327 3.24113,-3.976 z m 21.32174,-76.235189 c 0,-0.1721 -1.4625,-1.6346 -3.25,-3.25 l -3.25,-2.937091 2.93709,3.25 c 2.73778,3.029455 3.56291,3.709652 3.56291,2.937091 z M 168.64849,49.565313 c 0.67854,-0.453168 0.42949,-0.740555 -0.64994,-0.75 -1.17572,-0.01029 -1.72409,0.723045 -1.67105,2.234687 0.0528,1.503442 0.2684,1.752295 0.64994,0.75 0.31405,-0.825 1.06602,-1.830609 1.67105,-2.234687 z"
       id="path4266"
       inkscape:connector-curvature="0" />
    <path
       style="fill:#005388;fill-opacity:1;stroke:none;stroke-width:0.37599999;stroke-miterlimit:4;stroke-dasharray:none;stroke-opacity:1"
       d="m 189.90335,151.97201 -11.6139,-12.90508 -12.77045,-0.5395 c -13.85663,-0.58539 -21.32805,-2.20235 -31.02045,-6.71344 -8.43786,-3.9272 -8.24026,-5.35831 1.51226,-10.95236 10.0697,-5.77598 22.74161,-18.36606 26.60669,-26.434857 6.07156,-12.675076 5.77518,-25.337914 -0.92736,-39.620786 -2.09022,-4.454176 -3.34514,-8.353038 -2.91341,-9.05158 1.03833,-1.680052 25.05523,-0.603447 32.47182,1.455613 15.97124,4.434084 31.60945,15.850013 38.09401,27.808716 3.25959,6.011274 3.40599,6.732589 3.40599,16.781264 0,9.21528 -0.30588,11.10476 -2.5,15.44269 -3.41048,6.74278 -11.67282,15.4577 -19.47312,20.53979 l -6.47831,4.22079 -0.27429,16.06608 c -0.18281,10.70801 -0.64635,16.18976 -1.38993,16.43692 -0.6136,0.20395 -6.3419,-5.43646 -12.72955,-12.53426 z m 9.91992,-2.71864 c 0.92586,-4.93524 0.047,-5.2348 -1.23761,-0.42186 -0.58259,2.18267 -0.69216,3.96849 -0.24349,3.96849 0.44866,0 1.11516,-1.59598 1.4811,-3.54663 z M 167.63011,50.248062 c 0.34149,-0.889925 0.17384,-1.291322 -0.39302,-0.940983 -0.5437,0.336025 -0.98854,1.034397 -0.98854,1.551938 0,1.438432 0.71676,1.121463 1.38156,-0.610955 z"
       id="path4268"
       inkscape:connector-curvature="0" />
    <path
       style="fill:#005388;fill-opacity:1;stroke:none;stroke-width:0.37599999;stroke-miterlimit:4;stroke-dasharray:none;stroke-opacity:1"
       d="m 189.90335,151.97201 -11.6139,-12.90508 -12.77045,-0.5395 c -13.85663,-0.58539 -21.32805,-2.20235 -31.02045,-6.71344 -8.43786,-3.9272 -8.24026,-5.35831 1.51226,-10.95236 10.0697,-5.77598 22.74161,-18.36606 26.60669,-26.434857 6.07156,-12.675076 5.77518,-25.337914 -0.92736,-39.620786 -2.09022,-4.454176 -3.34514,-8.353038 -2.91341,-9.05158 1.03833,-1.680052 25.05523,-0.603447 32.47182,1.455613 15.97124,4.434084 31.60945,15.850013 38.09401,27.808716 3.25959,6.011274 3.40599,6.732589 3.40599,16.781264 0,9.21528 -0.30588,11.10476 -2.5,15.44269 -3.41048,6.74278 -11.67282,15.4577 -19.47312,20.53979 l -6.47831,4.22079 -0.27429,16.06608 c -0.18281,10.70801 -0.64635,16.18976 -1.38993,16.43692 -0.6136,0.20395 -6.3419,-5.43646 -12.72955,-12.53426 z m 9.91992,-2.71864 c 0.92586,-4.93524 0.047,-5.2348 -1.23761,-0.42186 -0.58259,2.18267 -0.69216,3.96849 -0.24349,3.96849 0.44866,0 1.11516,-1.59598 1.4811,-3.54663 z M 167.63011,50.248062 c 0.34149,-0.889925 0.17384,-1.291322 -0.39302,-0.940983 -0.5437,0.336025 -0.98854,1.034397 -0.98854,1.551938 0,1.438432 0.71676,1.121463 1.38156,-0.610955 z"
       id="path4270"
       inkscape:connector-curvature="0" />
    <path
       style="fill:#005388;fill-opacity:1;stroke:none;stroke-width:0.37599999;stroke-miterlimit:4;stroke-dasharray:none;stroke-opacity:1"
       d="m 189.84218,151.98837 -11.62358,-12.90588 -13.23503,-0.54875 c -13.97986,-0.57962 -22.41025,-2.5207 -31.98502,-7.36446 -6.70041,-3.38966 -6.23975,-5.01179 2.94642,-10.37546 4.29082,-2.50534 11.06926,-7.81251 15.31878,-11.99382 16.97467,-16.702212 19.9838,-34.977827 9.27838,-56.35123 -3.59166,-7.170746 -3.056,-7.654832 8.42503,-7.613882 22.16493,0.07906 38.83301,6.306318 51.84907,19.371018 10.0706,10.108231 11.93232,14.413562 11.93232,27.594094 0,9.03696 -0.3315,11.17335 -2.37913,15.33248 -3.22598,6.55259 -12.00787,15.81894 -19.71656,20.80425 l -6.35595,4.11049 -0.27418,16.0441 c -0.1865,10.91313 -0.6392,16.16545 -1.41557,16.42353 -0.62777,0.20868 -6.37201,-5.42824 -12.76498,-12.52648 z"
       id="path4272"
       inkscape:connector-curvature="0" />
  </g>
  <g
     transform="matrix(0.178,0,0,-0.178,38.5,116.5)"
     inkscape:label="rijksoverheid"
     id="g4190">
    <path
       inkscape:connector-curvature="0"
       id="path4192"
       style="fill:#005388;fill-opacity:1;fill-rule:nonzero;stroke:none"
       d="M 0,0 H 500 V 500 H 0 Z" />
    <g
       id="g4194">
      <g
         clip-path="url(#clipPath4198)"
         id="g4196">
        <g
           transform="translate(278.1787,275.0957)"
           id="g4202">
          <path
             inkscape:connector-curvature="0"
             id="path4204"
             style="fill:#ffffff;fill-opacity:1;fill-rule:nonzero;stroke:none"
             d="m 0,0 c 0,-2.424 1.483,-5.936 4.701,-4.936 0.161,0.088 0.309,0.03 0.278,-0.118 -0.499,-2.689 -5.289,-5.142 -7.477,-1.969 -1.94,-4.114 -1.499,-7.948 2.703,-10.197 0.235,-0.145 0.279,-0.425 0,-0.616 -2.498,-1.822 -6.377,-1.409 -8.199,2.086 -3.438,-2.587 -2.937,-8.109 -0.851,-9.99 0,-0.031 -9.52,-5.656 -18.159,-1.645 -5.738,2.762 -10.403,6.257 -17.785,5.699 1.036,10.359 6.215,13.077 15.735,14.576 7.603,1.234 8.572,4.729 7.486,7.375 -2.578,0.674 -7.317,-1.69 -7.317,-1.69 -0.845,1.425 0.39,2.894 0.39,2.894 -0.485,0.588 -0.713,2.497 -0.713,2.497 5.311,0 6.259,1.176 6.259,1.176 0.956,5.539 -4.688,6.127 -8.992,3.145 -2.006,1.762 -1.675,4.113 -1.675,4.113 -0.595,0.293 -0.977,1.22 -0.977,1.617 0,1.292 6.325,4.848 7.948,5.275 0.404,1.835 2.69,4.376 9.396,3.773 0.794,1.778 -0.499,8.258 -1.321,10.007 -0.266,0.514 0.116,0.808 0.704,0.455 2.336,-1.498 4.672,-6.964 6.259,-7.052 0,0 7.537,3.938 7.904,3.732 0.368,-0.206 1.426,-8.64 1.426,-8.64 0.999,-1.233 6.816,-0.029 9.358,-1.101 0.647,-0.279 0.617,-0.75 0.043,-0.838 C 5.215,19.305 -0.853,16.689 -1.837,15.016 1.631,9.799 0,2.116 0,0 m -67.238,-4.306 c -0.574,-0.763 -2.425,0.045 -3.13,0.368 -0.161,0.074 -0.19,0 -0.132,-0.118 0.448,-0.998 2.24,-4.01 4.9,-4.01 1.205,0 2.968,0.72 3.459,1.513 0,0 10.418,-3.379 15.559,-4.79 -1.998,-2.659 -3.246,-5.877 -3.489,-9.343 -4.15,2.541 -20.76,11.458 -20.76,11.458 l -5.164,-7.049 c -0.838,-1.148 -4.965,1.848 -4.106,3.025 l 3.93,5.377 c -1.292,1.381 -4.444,0.499 -5.282,0.264 -0.125,-0.029 -0.228,0.029 -0.125,0.235 0.5,1.059 2.454,4.306 7.346,2.852 0.015,2.967 -4.436,2.026 -5.597,1.703 -0.132,-0.029 -0.183,0.03 -0.059,0.161 1.204,1.293 4.812,4.218 8.86,1.822 l 1.777,2.425 -3.571,3.732 2.227,3.084 2.498,-3.379 19.187,26.27 c 0.463,0.646 4.253,1.749 5.701,2.058 0.146,-1.47 0.315,-5.408 -0.155,-6.054 L -62.213,0.792 -58.239,-0.5 -60.436,-3.584 -65.13,-1.396 Z M 75.811,-142.454 c 0.234,0.045 0.262,0.222 0.116,0.353 -2.497,1.617 -4.438,3.85 -4.438,6.318 0,4.408 8.449,10.212 12.504,10.212 2.395,0 4.128,-2.895 8.771,-2.895 2.394,0 5.186,0.984 7.507,3.877 0.163,0.236 0.075,0.413 -0.191,0.368 -1.938,-0.307 -7.169,-1.6 -9.607,7.832 -2.528,9.843 -3.366,16.984 0.999,20.744 3.686,3.173 19.922,9.315 28.853,12.738 0.471,0.177 0.443,0.515 0,0.618 -2.468,0.69 -4.877,2.188 -5.201,5.216 -0.234,1.894 0.178,4.495 2.308,5.759 -4.409,4.774 -13.164,8.094 -17.763,8.094 -17.675,0 -32.675,-23.932 -39.859,-23.932 -0.882,0 -2.057,0.324 -3.115,1.867 -0.218,0.307 -0.469,0.337 -0.469,-0.193 0,-7.243 3.834,-7.889 5.862,-7.889 1.161,-0.016 2.394,0.368 3.276,0.867 0.25,0.147 0.366,0.028 0.366,-0.235 0,-0.279 -0.058,-0.998 -0.058,-1.498 0,-8.538 8.903,-17.837 8.903,-17.837 -4.039,-4.202 -14.104,-11.225 -16.911,-7.493 -1.187,1.528 -6.463,11.019 -13.515,3.467 -0.236,-0.293 -0.074,-0.602 0.412,-0.602 3.951,0 7.051,-2.718 5.979,-6.803 -5.7,4.556 -13.576,3.806 -13.576,-6.699 0,-0.411 0.396,-0.498 0.618,-0.206 3.76,5.407 9.696,1.749 10.563,0.97 -3.996,-0.617 -10.916,-5.304 -4.82,-13.605 0.25,-0.382 0.486,-0.293 0.529,0 0.618,5.467 3.938,6.392 6.656,6.392 5.583,0 9.667,-5.127 13.928,0.308 1.529,-7.126 9.447,-6.434 11.373,-6.113 m -195.316,6.113 c 4.261,-5.435 8.338,-0.308 13.921,-0.308 2.726,0 6.045,-0.925 6.663,-6.392 0.029,-0.293 0.271,-0.382 0.544,0 6.074,8.301 -0.846,12.988 -4.849,13.605 0.874,0.779 6.817,4.437 10.593,-0.97 0.198,-0.292 0.616,-0.205 0.616,0.206 0,10.505 -7.881,11.255 -13.597,6.699 -1.072,4.085 2.013,6.803 6.002,6.803 0.463,0 0.647,0.309 0.389,0.602 -7.037,7.552 -12.319,-1.939 -13.509,-3.467 -2.813,-3.732 -12.877,3.291 -16.896,7.493 0,0 8.889,9.299 8.889,17.837 0,0.5 -0.059,1.219 -0.059,1.498 0,0.263 0.125,0.382 0.36,0.235 0.875,-0.499 2.123,-0.883 3.284,-0.867 2.028,0 5.869,0.646 5.869,7.889 0,0.53 -0.242,0.5 -0.485,0.193 -1.05,-1.543 -2.225,-1.867 -3.129,-1.867 -7.176,0 -22.163,23.932 -39.837,23.932 -4.62,0 -13.362,-3.32 -17.77,-8.094 2.138,-1.264 2.542,-3.865 2.321,-5.759 -0.315,-3.028 -2.725,-4.526 -5.193,-5.216 -0.449,-0.103 -0.478,-0.441 0,-0.618 8.925,-3.423 25.153,-9.565 28.84,-12.738 4.378,-3.76 3.519,-10.901 0.992,-20.744 -2.446,-9.432 -7.669,-8.139 -9.594,-7.832 -0.272,0.045 -0.374,-0.132 -0.198,-0.368 2.299,-2.893 5.097,-3.877 7.507,-3.877 4.636,0 6.362,2.895 8.771,2.895 4.048,0 12.503,-5.804 12.503,-10.212 0,-2.468 -1.939,-4.701 -4.422,-6.318 -0.168,-0.131 -0.139,-0.308 0.103,-0.353 1.925,-0.321 9.843,-1.013 11.371,6.113 M -36.113,6.083 c 3.085,0.779 6.471,0.411 6.831,0.279 0.5,-0.148 0.486,-0.882 -0.073,-0.956 -6.42,-0.822 -6.722,-3.79 -10.813,-3.79 -2.711,0 -5.627,2.733 -4.533,6.729 0.139,0.513 0.544,0.529 0.661,0.058 0.404,-1.733 2.902,-3.613 7.927,-2.32 m 16.102,10.784 c -4.364,0.264 -7.147,-0.706 -7.031,-2.116 2.123,-2.219 4.945,-1.969 7.031,2.116 M -56.748,-96.702 c -2.424,-2.967 -4.562,-0.148 -7.75,-0.148 -3.012,0 -3.505,-2.497 -3.585,-3.496 -0.014,-0.175 -0.117,-0.263 -0.235,-0.058 -3.402,4.642 0.404,7.169 2.615,7.508 -0.316,0.308 -3.673,2.57 -5.789,-0.516 -0.168,-0.219 -0.382,-0.115 -0.382,0.147 -0.088,5.76 4.475,6.158 7.479,3.645 0.558,2.174 -0.852,3.642 -3.292,3.761 -0.3,0 -0.344,0.175 -0.227,0.323 1.021,1.088 2.013,1.586 3.012,1.586 3.217,0 3.607,-4.04 5.714,-4.04 3.145,0 7.582,4.217 8.001,4.673 -0.074,0.249 -3.079,8.388 -2.498,13.266 0.029,0.205 -0.073,0.235 -0.206,0.148 -1.52,-0.868 -5.37,-0.839 -5.37,3.921 0,0.368 0.104,0.397 0.316,0.104 1.697,-2.351 4.437,0.293 5.789,1.837 1.491,1.63 9.403,13.164 19.952,13.164 2.314,-0.017 5.325,-1.28 7.727,-2.969 -3.636,-4.436 -0.029,-8.682 2.683,-8.138 0.315,0.073 0.358,-0.222 0.059,-0.338 -13.944,-5.231 -20.173,-7.332 -20.173,-19.013 0,-6.111 2.071,-9.491 5.656,-8.698 0.272,0.089 0.346,-0.029 0.147,-0.235 -1.293,-1.556 -2.784,-2.056 -4.033,-2.056 -2.887,0 -3.409,1.587 -4.959,1.587 -1.609,0 -6.802,-3.057 -6.802,-5.614 0,-0.968 0.618,-2.276 2.453,-3.481 0.118,-0.073 0.045,-0.19 -0.058,-0.19 -1.161,-0.237 -5.282,-0.587 -6.244,3.32 m -18.857,49.6 -5.444,1.396 -0.448,-0.661 -6.339,2.762 c 0,0 4.665,0.03 5.663,0.058 0.522,0 0.566,0.322 0.279,0.588 -2.57,2.526 -4.826,4.746 -4.826,4.746 0,0 2.572,-0.956 6.244,-2.337 0.419,-0.147 0.573,0.177 0.375,0.441 -1.763,2.615 -4.166,6.112 -4.166,6.112 0,0 5.099,-3.408 6.12,-4.114 0.331,-0.221 0.603,0 0.47,0.338 -1.366,3.35 -2.902,7.154 -2.902,7.154 l 5.576,-5.258 c 0.257,-0.235 0.544,-0.119 0.485,0.234 -0.558,2.512 -1.549,7.17 -1.549,7.17 l 4.105,-5.98 c 0.242,-0.366 0.544,-0.249 0.559,0.163 0.014,1.159 0.118,6.552 0.118,6.552 0,0 1.733,-3.967 2.607,-5.993 0.177,-0.414 0.478,-0.443 0.705,0.086 0.272,0.648 2.108,5.054 2.108,5.054 l 0.235,-6.815 -0.903,-0.178 -1.139,-8.212 c 8.14,1.925 18.277,15.823 26.042,15.823 9.248,0 12.62,-10.843 29.728,-5.334 4.321,-6.391 5.819,-11.943 7.495,-19.643 6.596,-6.199 15.866,-4.129 15.866,2.439 0,8.874 -9.652,10.549 -9.652,19.805 0,4.114 2.894,10.05 10.784,10.05 4.172,0 10.283,-1.794 13.809,-1.794 4.188,0 5.07,3.042 5.538,4.291 0.384,0.939 1.515,0.618 1.412,-0.104 -0.132,-0.867 0.485,-2.07 0.485,-4.068 0,-5.85 -8.507,-6.598 -9.564,-5.878 -0.441,0.295 -0.765,-0.16 -0.441,-0.411 1.277,-1.027 0.984,-4.525 -0.529,-6.729 -0.177,-0.265 -0.427,-0.205 -0.472,0.03 -0.908,4.172 -5.816,9.342 -10.151,9.342 -1.585,0 -4.745,-0.923 -4.745,-4.582 0,-5.26 10.52,-10.048 10.52,-20.951 0,-11.328 -11.226,-14.046 -22.508,-11.224 0.382,-10.726 16.411,-17.102 16.778,-9.432 0.015,0.529 0.307,0.205 0.47,-0.016 2.379,-3.276 1.291,-5.773 -1.734,-7.037 2.791,-1.263 3.291,-6.89 4.113,-10.254 1.235,-5.055 6.568,-2.249 6.847,-2.101 0.279,0.16 0.382,0.014 0.266,-0.309 -2.028,-5.26 -7.407,-3.262 -7.407,-3.262 -2.819,-1.998 0.589,-3.761 3.145,-4.524 0.382,-0.102 0.367,-0.382 0.058,-0.501 -1.895,-0.705 -5.919,-1.969 -7.874,1.411 -1.456,-3.482 -4.422,-3.393 -5.583,-3.393 -2.058,0 -3.438,-2.102 -2.954,-4.922 0.045,-0.25 -0.132,-0.323 -0.307,-0.177 -4.922,3.247 -2.102,7.081 -0.119,8.052 -0.336,0.191 -3.715,1.615 -5.169,-2.352 -0.105,-0.322 -0.295,-0.322 -0.399,-0.03 -2.159,5.702 2.528,7.376 5.907,5.936 -0.236,0.809 -1.998,3.585 -6.451,2.705 -0.206,-0.059 -0.337,0.028 -0.206,0.293 0.736,1.763 2.926,4.334 6.979,1.734 2.044,-1.279 5.598,0.587 5.923,0.734 -7.156,14.281 -21.099,2.336 -24.213,13.516 -0.059,0.221 -0.338,0.441 -0.529,-0.175 -0.735,-2.381 -6.825,-2.557 -7.934,2.145 -0.095,0.352 0.058,0.41 0.287,0.16 0.88,-0.88 2.799,-1.689 5.311,1.925 1.66,2.41 1.894,5.598 1.894,7.787 0,8.669 -8.667,23.242 -22.176,23.242 -8.544,0 -17.741,-3.349 -24.558,-8.314 l 6.354,-1.456 c -0.602,-6.405 -6.773,-10.136 -12.444,-8.564 l 0.977,7.331 c -0.977,-0.295 -3.46,-1.19 -4.797,-3.07 -0.088,-0.147 -0.287,-0.119 -0.331,0.057 -1.16,4.159 2.271,6.26 3.336,6.788 0.125,0.089 0.125,0.176 -0.103,0.176 -3.085,0.118 -4.811,-2.144 -5.297,-2.924 -0.072,-0.131 -0.206,-0.087 -0.257,0.016 -0.234,0.764 -0.778,2.908 0.647,4.437 m 48.072,-134.666 c 53.888,0 108.602,-2.822 115.773,-10.96 0.558,-0.647 0.807,0.029 0.807,0.499 l 0.015,28.577 c 0,8.329 -56.46,13.177 -116.595,13.177 -60.134,0 -116.581,-4.848 -116.581,-13.177 l 0.015,-28.577 c 0,-0.47 0.227,-1.146 0.793,-0.499 7.163,8.138 61.882,10.96 115.773,10.96 m 87.917,-12.753 v -12.385 c 0,-21.053 34.672,-1.309 68.155,0.808 27.767,1.821 35.54,-5.26 35.54,-5.26 l -5.113,28.091 c -0.264,1.513 -6.274,5.847 -25.431,5.847 -23.054,0 -34.6,-4.408 -38.816,-5.906 v -14.75 c 0,-3.35 -1.704,-4.995 -4.261,-6.025 0,1.235 -3.835,9.58 -30.074,9.58 m -205.915,-9.58 c -2.557,1.03 -4.24,2.675 -4.24,6.025 v 14.75 c -4.23,1.498 -15.778,5.906 -38.83,5.906 -19.165,0 -25.168,-4.334 -25.439,-5.847 l -5.105,-28.091 c 0,0 7.765,7.081 35.554,5.26 33.461,-2.117 68.133,-21.861 68.133,-0.808 v 12.385 c -26.231,0 -30.073,-8.345 -30.073,-9.58 m 63.807,243.372 c -8.051,-1.762 -13.811,-3.423 -16.397,-4.216 0.133,3.555 1.47,6.847 4.643,7.581 0.412,0.088 0.515,0.633 0.14,0.881 -7.178,4.776 -11.012,-4.349 -11.137,-4.643 -2.542,0.177 -6.406,-0.616 -6.406,-4.053 0,-10.257 -23.485,-15.971 -28.928,-16.794 9.58,-3.702 13.583,-15.794 13.583,-15.794 6.963,6.964 15.103,13.106 16.911,13.106 1.85,0 2.555,-2.322 2.695,-3.702 0.044,-0.456 0.478,-0.619 0.764,-0.206 3.644,5.436 1.896,6.67 1.594,8.256 -0.242,1.264 0.14,6.038 5.443,5.466 v -68.522 l -2.718,-0.546 c -1.263,-0.219 -11.283,8.301 -22.75,16.235 -11.474,7.935 -17.645,3.189 -30.735,-3.892 -17.124,-9.272 -34.438,-0.867 -34.438,-0.867 -14.773,-10.549 -19.783,-41.049 -19.783,-41.049 -2.945,-1.264 -7.823,-2.586 -12.444,-2.586 -11.269,0 -13.34,6.816 -13.34,10.9 0,17.397 21.781,24.859 21.781,42.005 0,4.158 -1.911,21.083 -22.854,21.083 -2.674,0 -18.651,0.029 -18.725,0.029 -7.838,0 -9.8,5.641 -10.879,7.786 -0.419,0.854 -1.219,0.368 -0.918,-0.293 0.602,-1.439 -0.918,-3.629 -0.918,-7.978 0,-6.965 4.091,-11.166 11.724,-11.166 3.46,0 6.721,1 7.772,1.631 0.712,0.411 1.087,-0.263 0.756,-0.646 -3.313,-3.879 -3.585,-11.136 -2.211,-12.914 0.316,-0.426 0.721,-0.295 0.793,0.03 1.852,7.374 8.742,14.323 18.013,14.323 11.357,0 11.298,-9.667 11.298,-11.987 0,-13.958 -24.506,-24.212 -24.506,-43.386 0,-19.466 20.562,-23.639 32.476,-20.554 -0.705,-19.481 -23,-26.123 -23.676,-12.194 -0.066,0.676 -0.528,0.837 -0.903,-0.059 -2.813,-6.876 -1.704,-12.93 6.979,-14.854 0.587,-0.161 0.3,-0.47 -0.243,-0.837 -8.587,-5.465 -3.923,-26.946 -3.504,-33.263 0.646,-9.109 -8.411,-8.021 -9.146,-7.758 -0.374,0.133 -0.734,-0.043 -0.169,-0.763 6.428,-7.89 14.355,-0.675 14.355,-0.675 5.987,-1.881 2.27,-6.994 -1.712,-9.683 -0.632,-0.426 -0.573,-0.822 0.103,-0.866 0.889,-0.059 10.166,-0.854 11.826,6.552 4.107,-4.907 10.138,-3.115 11.416,-2.468 1.778,0.911 10.475,4.069 11.328,-5.715 0.059,-0.692 0.47,-0.235 0.756,0.132 6.575,8.257 -0.47,13.354 -4.379,13.957 0.317,0.44 5.577,4.819 10.322,-1.234 0.316,-0.412 0.617,-0.499 0.676,0.308 0.543,10.49 -7.993,11.446 -13.494,6.875 -0.258,1.088 -2.094,6.981 6.229,6.774 0.191,0 0.602,0.294 0.176,0.691 -6.464,6.847 -11.776,0.632 -13.01,-0.853 -2.894,-3.393 -10.049,-2.041 -10.71,-1.954 2.24,36.407 34.313,23.508 38.72,41.198 0.214,0.939 0.632,0.587 0.706,0.25 1.219,-4.322 12.113,-4.922 14.097,3.568 0.124,0.529 0.043,0.956 -0.331,0.559 -9.278,-9.286 -30.192,19.717 -1.653,43.252 24.359,20.099 46.184,8.904 54.492,2.293 0.434,-2.909 -1.293,-3.849 -2.409,-4.202 -0.389,-0.118 -0.528,-0.5 0.103,-0.735 2.336,-0.882 5.598,-0.616 7.133,1.558 5.238,-3.643 0.756,-8.257 -1.366,-9.521 -0.53,-0.338 -0.302,-0.705 0.147,-0.793 4.803,-0.852 8.756,4.055 8.954,6.876 l 0.793,-0.472 v -20.684 c 0,-29.444 33.99,-33.528 71.286,-58.503 37.288,24.975 71.269,29.059 71.269,58.503 v 20.684 l 0.825,0.472 c 0.175,-2.821 4.141,-7.728 8.931,-6.876 0.456,0.088 0.677,0.455 0.148,0.793 -2.117,1.264 -6.582,5.878 -1.367,9.521 1.543,-2.174 4.819,-2.44 7.14,-1.558 0.618,0.235 0.5,0.617 0.103,0.735 -1.102,0.353 -2.85,1.293 -2.394,4.202 8.286,6.611 30.133,17.806 54.491,-2.293 28.518,-23.535 7.612,-52.538 -1.674,-43.252 -0.382,0.397 -0.426,-0.03 -0.324,-0.559 1.998,-8.49 12.87,-7.89 14.076,-3.568 0.087,0.337 0.529,0.689 0.719,-0.25 4.407,-17.69 36.496,-4.791 38.729,-41.198 -0.648,-0.087 -7.816,-1.439 -10.697,1.954 -1.232,1.485 -6.551,7.7 -13.031,0.853 -0.412,-0.397 -0.03,-0.691 0.191,-0.691 8.33,0.207 6.494,-5.686 6.215,-6.774 -5.496,4.571 -14.031,3.615 -13.473,-6.875 0.045,-0.807 0.367,-0.72 0.677,-0.308 4.73,6.053 9.989,1.674 10.312,1.234 -3.922,-0.603 -10.944,-5.7 -4.377,-13.957 0.279,-0.367 0.69,-0.824 0.749,-0.132 0.853,9.784 9.55,6.626 11.342,5.715 1.264,-0.647 7.286,-2.439 11.415,2.468 1.645,-7.406 10.917,-6.611 11.827,-6.552 0.661,0.044 0.721,0.44 0.103,0.866 -3.996,2.689 -7.714,7.802 -1.733,9.683 0,0 7.947,-7.215 14.355,0.675 0.571,0.72 0.218,0.896 -0.148,0.763 -0.75,-0.263 -9.815,-1.351 -9.168,7.758 0.441,6.317 5.083,27.798 -3.496,33.263 -0.545,0.367 -0.838,0.676 -0.251,0.837 8.683,1.924 9.816,7.978 6.994,14.854 -0.368,0.896 -0.867,0.735 -0.91,0.059 -0.661,-13.929 -22.979,-7.287 -23.684,12.194 11.916,-3.085 32.484,1.088 32.484,20.554 0,19.174 -24.506,29.428 -24.506,43.386 0,2.32 -0.059,11.987 11.298,11.987 9.269,0 16.161,-6.949 18.012,-14.323 0.074,-0.325 0.468,-0.456 0.808,-0.03 1.351,1.778 1.102,9.035 -2.219,12.914 -0.337,0.383 0.031,1.057 0.75,0.646 1.043,-0.631 4.319,-1.631 7.772,-1.631 7.609,0 11.71,4.201 11.71,11.166 0,4.349 -1.499,6.539 -0.897,7.978 0.309,0.661 -0.499,1.147 -0.912,0.293 -1.101,-2.145 -3.054,-7.786 -10.9,-7.786 -0.074,0 -16.045,-0.029 -18.732,-0.029 -20.937,0 -22.846,-16.925 -22.846,-21.083 0,-17.146 21.788,-24.608 21.788,-42.005 0,-4.084 -2.072,-10.9 -13.34,-10.9 -4.629,0 -9.507,1.322 -12.43,2.586 0,0 -5.025,30.5 -19.806,41.049 0,0 -17.306,-8.405 -34.437,0.867 -13.091,7.081 -19.247,11.827 -30.734,3.892 -11.461,-7.934 -21.481,-16.454 -22.729,-16.235 l -2.749,0.546 v 68.522 c 5.32,0.572 5.702,-4.202 5.452,-5.466 -0.28,-1.586 -2.042,-2.82 1.617,-8.256 0.262,-0.413 0.705,-0.25 0.734,0.206 0.148,1.38 0.853,3.702 2.703,3.702 1.792,0 9.947,-6.142 16.909,-13.106 0,0 4.012,12.092 13.605,15.794 -5.464,0.823 -28.943,6.537 -28.943,16.794 0,3.437 -3.877,4.23 -6.405,4.053 -0.132,0.294 -3.966,9.419 -11.121,4.643 -0.397,-0.248 -0.295,-0.793 0.116,-0.881 3.173,-0.734 4.527,-4.026 4.672,-7.581 -6.86,2.087 -36.024,10.284 -70.608,10.284 -16.793,0 -32.256,-1.938 -44.547,-4.158 V 17.424 h -9.644 v 21.847 m 54.191,22.052 c 29.546,0 46.235,-5.64 46.235,-5.64 0.161,14.926 0.059,23.257 8.61,22.007 -4.672,12.547 15.484,17.469 15.484,33.821 0,10.755 -7.61,11.989 -9.857,11.989 -6.686,0 -5.643,-4.364 -11.342,-4.364 -0.705,0 -1.425,0.185 -1.425,-0.331 0,-1.879 1.601,-5.09 4.216,-5.09 3.482,0 3.555,3.496 6.155,3.496 1.117,0 2.748,-0.918 2.748,-4.495 0,-6.948 -4.555,-14.662 -9.946,-20.627 -1.234,1.704 -2.909,2.762 -4.922,2.762 -3.189,0 -5.964,-3.32 -5.964,-7.434 0,-1.513 0.234,-2.615 0.793,-3.879 -1.808,-0.997 -3.395,-1.572 -4.584,-1.572 -2.424,0 -6.084,0.985 -6.084,6.303 0,11.842 15.869,22.273 15.869,37.281 0,7.177 -4.774,14.303 -14.781,14.303 -10.754,0 -8.74,-9.793 -18.026,-9.793 -0.426,0 -0.78,-0.132 -0.78,-0.506 0,-0.618 1.617,-6.038 6.436,-6.038 5.128,0 6.582,8.88 11.136,8.88 1.689,0 4.231,-0.991 4.231,-7.016 0,-4.693 -2.308,-12.252 -5.656,-19.51 -1.19,1.205 -2.822,2.086 -4.672,2.086 -3.983,0 -6.847,-3.864 -6.847,-8.448 0,-2.924 1.161,-5.715 3.13,-7.566 -2.351,-2.997 -4.731,-5.436 -7.992,-5.436 -6.406,0 -9.248,3.642 -9.248,7.595 0,4.306 7.837,5.862 7.837,12.548 0,4.569 -2.968,7.132 -5.804,7.132 -3.07,0 -4.635,-2.034 -4.95,-2.034 -0.316,0 -1.881,2.034 -4.952,2.034 -2.843,0 -5.803,-2.563 -5.803,-7.132 0,-6.686 7.816,-8.242 7.816,-12.548 0,-3.953 -2.828,-7.595 -9.234,-7.595 -3.246,0 -5.641,2.439 -7.984,5.436 1.968,1.851 3.107,4.642 3.107,7.566 0,4.584 -2.858,8.448 -6.825,8.448 -1.851,0 -3.474,-0.881 -4.679,-2.086 -3.328,7.258 -5.657,14.817 -5.657,19.51 0,6.025 2.542,7.016 4.24,7.016 4.546,0 5.986,-8.88 11.15,-8.88 4.797,0 6.406,5.42 6.406,6.038 0,0.374 -0.345,0.506 -0.764,0.506 -9.3,0 -7.302,9.793 -18.027,9.793 -10.005,0 -14.787,-7.126 -14.787,-14.303 0,-15.008 15.888,-25.439 15.888,-37.281 0,-5.318 -3.672,-6.303 -6.096,-6.303 -1.204,0 -2.777,0.575 -4.584,1.572 0.558,1.264 0.793,2.366 0.793,3.879 0,4.114 -2.799,7.434 -5.972,7.434 -2.012,0 -3.688,-1.058 -4.914,-2.762 -5.392,5.965 -9.932,13.679 -9.932,20.627 0,3.577 1.609,4.495 2.718,4.495 2.608,0 2.682,-3.496 6.171,-3.496 2.621,0 4.216,3.211 4.216,5.09 0,0.516 -0.727,0.331 -1.432,0.331 -5.701,0 -4.651,4.364 -11.328,4.364 -2.255,0 -9.873,-1.234 -9.873,-11.989 0,-16.352 20.165,-21.274 15.486,-33.821 8.557,1.25 8.454,-7.081 8.616,-22.007 0,0 16.675,5.64 46.236,5.64 m 0,70.992 c -4.077,0 -7.39,-3.276 -7.39,-7.367 0,-4.063 3.313,-7.376 7.39,-7.376 4.076,0 7.376,3.313 7.376,7.376 0,4.091 -3.3,7.367 -7.376,7.367 m -3.702,15.395 c 0,-1.777 0.763,-3.343 1.365,-4.217 1.249,-1.755 1.058,26.874 0.471,26.286 -0.573,-0.587 -1.551,-0.785 -3.328,0.448 -0.874,0.618 -2.417,-28.202 -4.195,-28.202 -3.04,0 -4.547,27.586 -4.547,25.89 0,-1.72 1.507,-3.703 4.547,-3.703 1.778,0 3.321,0.757 4.195,1.365 1.777,1.235 2.755,1.058 3.328,0.471 0.587,-0.573 -0.272,-6.692 -0.948,-11.497 -5.039,-1.051 -7.464,-5.083 -7.464,-7.426 0,-6.067 6.473,-9.557 10.278,-11.584 3.804,2.027 10.284,5.517 10.284,11.584 0,2.343 -2.439,6.375 -7.456,7.426 -0.691,4.805 -1.549,10.924 -0.962,11.497 0.572,0.587 1.549,0.764 3.32,-0.471 0.868,-0.608 2.41,-1.365 4.201,-1.365 3.042,0 4.541,1.983 4.541,3.703 0,1.696 -1.499,-25.89 -4.541,-25.89 -1.791,0 -3.333,28.82 -4.201,28.202 -1.771,-1.233 -2.748,-1.035 -3.32,-0.448 -0.587,0.588 -0.787,-28.041 0.447,-26.286 0.616,0.874 1.389,2.44 1.389,4.217 0,3.042 -2.005,4.541 -3.702,4.541 -1.719,0 -3.702,-1.499 -3.702,-4.541 M 117.3,58.958 c -1.499,-7.037 -7.759,-8.036 -11.577,-3.76 0.308,3.394 3.687,4.187 11.577,3.76 m 45.602,-39.8 c 0,0.735 -0.307,0.618 -0.6,0.47 -6.054,-3.025 -9.315,3.467 -7.861,10.167 0.837,3.732 4.114,13.855 -4.1,22.067 -8.08,-4.614 -13.516,2.968 -12.135,6.641 0.382,0.969 1.014,1.117 1.014,-0.132 0,-2.557 2.586,-4.437 4.467,-4.437 3.247,0 9.198,3.658 9.696,9.183 -8.36,5.464 -22.435,3.26 -25.255,-7.053 -0.339,-1.293 -1.911,-1.174 -1.808,0.118 0.059,0.881 0.425,6.993 6.524,10.078 5.494,2.748 3.482,6.861 2.042,8.316 -0.603,0.602 -1.734,0.486 -1.366,-0.133 2.116,-3.658 -2.411,-5.303 -8.684,-4.54 -13.28,1.793 -17.659,-3.142 -18.364,-6.565 -2.909,-0.75 -14.207,-7.083 -14.207,-9.434 0,-0.72 0.661,-2.408 1.734,-2.893 0,0 -0.279,-4.79 3.26,-7.935 14.105,8.522 18.043,0.559 16.573,-5.082 0,0 -2.497,-2.057 -12.018,-2.057 0,0 0.47,-3.439 1.263,-4.408 0,0 -2.16,-2.733 -0.632,-5.259 0,0 4.879,3.672 13.34,3.276 0,0 5.378,-8.213 -14.662,-12.077 C 81.04,13.62 74.693,-5.378 74.693,-15.75 c 0,-0.515 0.206,-0.793 0.675,-0.704 16.236,3.026 23.685,-13.812 44.752,-11.9 -1.821,4.951 0.193,10.136 0.193,10.136 1.645,-4.467 5.64,-7.389 8.46,-8.887 7.48,1.659 12.416,5.229 13.546,7.388 0,0 -7.963,6.569 -2.776,18.452 0,0 4.996,-7.932 15.324,-3.612 0.911,0.397 0.703,0.998 0.103,1.189 -13.973,4.511 -4.892,16.309 -4.027,17.497 6.48,-3.613 11.959,1.148 11.959,5.349 M 83.64,38.757 c -4.099,0 -8.006,1.823 -8.756,4.996 -0.161,0.793 -0.852,1.087 -1.175,-0.103 -1.954,-7.126 3.07,-10.446 7.978,-10.446 5.42,0 8.462,3.864 16.176,5.201 3.379,0.558 5.7,0.029 5.7,1.072 0,1.029 -4.982,1.044 -5.7,1.044 -8.038,0 -9.125,-1.764 -14.223,-1.764 m -244.422,16.441 c -3.842,-4.276 -10.078,-3.277 -11.57,3.76 7.868,0.427 11.255,-0.366 11.57,-3.76 m -45.229,-41.389 c 0.845,-1.188 9.947,-12.986 -4.01,-17.497 -0.618,-0.191 -0.831,-0.792 0.103,-1.189 10.305,-4.32 15.301,3.612 15.301,3.612 5.186,-11.883 -2.769,-18.452 -2.769,-18.452 1.131,-2.159 6.045,-5.729 13.538,-7.388 2.828,1.498 6.817,4.42 8.47,8.887 0,0 2.035,-5.185 0.198,-10.136 21.061,-1.912 28.51,14.926 44.744,11.9 0.463,-0.089 0.691,0.189 0.691,0.704 0,10.372 -6.369,29.37 -26.467,33.219 -20.025,3.864 -14.634,12.077 -14.634,12.077 8.456,0.396 13.326,-3.276 13.326,-3.276 1.55,2.526 -0.631,5.259 -0.631,5.259 0.815,0.969 1.248,4.408 1.248,4.408 -9.506,0 -12.003,2.057 -12.003,2.057 -1.462,5.641 2.468,13.604 16.594,5.082 3.52,3.145 3.262,7.935 3.262,7.935 1.058,0.485 1.719,2.173 1.719,2.893 0,2.351 -11.298,8.684 -14.207,9.434 -0.691,3.423 -5.084,8.358 -18.35,6.565 -6.288,-0.763 -10.821,0.882 -8.697,4.54 0.359,0.619 -0.766,0.735 -1.353,0.133 -1.461,-1.455 -3.46,-5.568 2.028,-8.316 6.097,-3.085 6.472,-9.197 6.516,-10.078 0.087,-1.292 -1.462,-1.411 -1.808,-0.118 -2.813,10.313 -16.895,12.517 -25.24,7.053 0.492,-5.525 6.42,-9.183 9.689,-9.183 1.866,0 4.466,1.88 4.466,4.437 0,1.249 0.632,1.101 1.007,0.132 1.366,-3.673 -4.048,-11.255 -12.129,-6.641 -8.212,-8.212 -4.928,-18.335 -4.105,-22.067 1.476,-6.7 -1.8,-13.192 -7.853,-10.167 -0.301,0.148 -0.618,0.265 -0.618,-0.47 0,-4.201 5.509,-8.962 11.974,-5.349 m 53.082,26.712 c -0.727,0 -5.715,-0.015 -5.715,-1.044 0,-1.043 2.329,-0.514 5.715,-1.072 7.714,-1.337 10.754,-5.201 16.168,-5.201 4.922,0 9.932,3.32 7.978,10.446 -0.316,1.19 -1.006,0.896 -1.175,0.103 -0.75,-3.173 -4.65,-4.996 -8.771,-4.996 -5.084,0 -6.186,1.764 -14.2,1.764 M 25.563,-5.597 h -9.637 v 26.753 h 9.637 z m -43.459,-117.831 h -9.637 v 26.74 h 9.637 z" />
        </g>
      </g>
    </g>
  </g>
</svg>
